<svg width="355" height="464" viewBox="0 0 655 464" fill="none" xmlns="http://www.w3.org/2000/svg"><path d="M124 44c0-24.3 19.699-44 44-44h299v420c0 24.301-19.699 44-44 44H168c-24.301 0-44-19.699-44-44V44z" fill="#A5FF75"/><path fill="#9AF06C" d="M124 57h343v95H124z"/><path d="M124 300h343v120c0 24.301-19.699 44-44 44H124V300z" fill="#4E8133"/><path d="M124 152.5h343v148H124v-148z" fill="#85D858"/><path d="M183 71h369.553a25 25 0 0119.949 9.933l70.895 93.866a25 25 0 01.349 29.66l-71.264 99.134a25 25 0 01-20.3 10.407H208c-13.807 0-25-11.193-25-25V71z" fill="#B4FF8C"/><path d="M231.14 149.86c-.48 0-1.12-.48-1.92-1.44-.76-.96-1.14-1.84-1.14-2.64s1.18-6.38 3.54-16.74c2.4-10.4 3.62-16.84 3.66-19.32 0-.68.08-1.14.24-1.38.2-.28.58-.42 1.14-.42.6 0 1.36.62 2.28 1.86.96 1.24 1.44 2.58 1.44 4.02 0 1.4-1.44 7.96-4.32 19.68-.28 1.08-.66 2.64-1.14 4.68-.48 2-.86 3.54-1.14 4.62-.28 1.08-.58 2.26-.9 3.54-.68 2.36-1.26 3.54-1.74 3.54zm20.014-5.76c0 .76.44 1.14 1.32 1.14 1.52 0 3.36-.42 5.52-1.26 2.2-.88 3.42-1.32 3.66-1.32.72 0 1.08.38 1.08 1.14 0 1.16-1.2 2.5-3.6 4.02-2.36 1.52-4.52 2.28-6.48 2.28-1.92 0-3.52-.52-4.8-1.56-1.28-1.08-1.92-2.18-1.92-3.3 0-1.12.24-2.54.72-4.26.48-1.76 1.16-4.06 2.04-6.9.92-2.88 1.64-5.26 2.16-7.14-1.88.44-3.14.66-3.78.66-.64 0-1.28-.32-1.92-.96-.6-.68-.9-1.32-.9-1.92 0-.96 2.6-1.88 7.8-2.76.72-3.32 1.08-6.26 1.08-8.82 0-1.2.4-1.8 1.2-1.8.68 0 1.52.44 2.52 1.32 1 .84 1.5 1.8 1.5 2.88 0 1.08-.34 2.98-1.02 5.7 2.28-.2 4.1-.3 5.46-.3 2.4 0 3.6.52 3.6 1.56 0 .6-.66 1.1-1.98 1.5-1.28.4-4 1.02-8.16 1.86-.84 3.16-1.9 6.78-3.18 10.86-1.28 4.04-1.92 6.5-1.92 7.38zm28.483-37.74c0 2.52-1.16 5.06-3.48 7.62-2.32 2.56-4.22 3.84-5.7 3.84-1.08 0-1.62-.44-1.62-1.32 0-.48.44-1.16 1.32-2.04.92-.88 1.84-1.9 2.76-3.06.92-1.16 1.38-2.24 1.38-3.24s-.18-1.74-.54-2.22c-.36-.48-.74-.82-1.14-1.02-1.16-.48-1.74-1.1-1.74-1.86s.3-1.4.9-1.92a3.27 3.27 0 012.22-.84c1.56 0 2.88.56 3.96 1.68 1.12 1.08 1.68 2.54 1.68 4.38zm22.328 13.98c1.36 0 2.64.76 3.84 2.28 1.2 1.48 1.8 2.78 1.8 3.9 0 .68-.32 1.02-.96 1.02-.44 0-1.12-.34-2.04-1.02-.92-.72-1.86-1.08-2.82-1.08-.96 0-2.48.56-4.56 1.68-2.04 1.12-3.06 2.3-3.06 3.54 0 .92 1.84 2.5 5.52 4.74 1.4.88 2.66 2.02 3.78 3.42 1.16 1.36 1.74 2.84 1.74 4.44 0 1.56-1.1 3.1-3.3 4.62-2.16 1.48-4.7 2.22-7.62 2.22-2.88 0-5.44-.7-7.68-2.1-2.2-1.4-3.3-2.72-3.3-3.96 0-.52.12-.92.36-1.2.28-.32.62-.48 1.02-.48s.96.26 1.68.78c2.16 1.56 4.4 2.34 6.72 2.34 2.36 0 4.06-.26 5.1-.78 1.04-.56 1.56-1.28 1.56-2.16 0-.92-.58-1.88-1.74-2.88a22.316 22.316 0 00-3.84-2.76c-1.36-.8-2.62-1.78-3.78-2.94-1.16-1.16-1.74-2.34-1.74-3.54 0-2.12 1.66-4.32 4.98-6.6 3.36-2.32 6.14-3.48 8.34-3.48zm71.289 0c1.2 0 2.26.84 3.18 2.52.96 1.64 1.44 3.52 1.44 5.64 0 2.08-.38 4.8-1.14 8.16-.72 3.36-1.7 6.44-2.94 9.24s-2.46 4.2-3.66 4.2c-.84 0-1.26-.54-1.26-1.62 0-1.12.68-3.82 2.04-8.1 1.4-4.32 2.1-7.74 2.1-10.26 0-2.56-.4-3.84-1.2-3.84-1 0-2.16.88-3.48 2.64-1.28 1.76-2.66 3.88-4.14 6.36l-2.4 4.02c-.12.16-.28.4-.48.72-.16.32-.36.66-.6 1.02-.2.36-.76 1.44-1.68 3.24-.88 1.8-1.66 3.22-2.34 4.26-.68 1-1.28 1.5-1.8 1.5-.48 0-1.02-.32-1.62-.96-.6-.64-.9-1.24-.9-1.8s.36-1.72 1.08-3.48c2.08-5.2 3.12-10.04 3.12-14.52 0-.84-.18-1.54-.54-2.1-.36-.6-.76-.9-1.2-.9-.44 0-.9.2-1.38.6-.48.36-1.08 1.04-1.8 2.04-.72.96-1.36 1.88-1.92 2.76-.56.88-1.42 2.26-2.58 4.14-1.12 1.84-1.98 3.22-2.58 4.14-.56.88-1.22 1.92-1.98 3.12-.76 1.16-1.36 2.06-1.8 2.7-.4.64-.86 1.34-1.38 2.1-1.08 1.48-1.88 2.22-2.4 2.22-.48 0-1.12-.44-1.92-1.32-.8-.92-1.2-1.6-1.2-2.04 0-.48.08-1.06.24-1.74.16-.68.32-1.34.48-1.98.2-.64.48-1.58.84-2.82.4-1.28.84-2.76 1.32-4.44.52-1.72.9-4.06 1.14-7.02.28-3 .48-5.18.6-6.54.12-1.4.46-2.1 1.02-2.1.88 0 1.74.46 2.58 1.38.88.92 1.32 1.84 1.32 2.76 0 3.52-1.32 9.32-3.96 17.4 4.48-8.4 7.3-13.38 8.46-14.94 1.16-1.56 2.16-2.82 3-3.78 1.56-1.72 3.14-2.58 4.74-2.58.96 0 2.1.84 3.42 2.52 1.36 1.64 2.04 3.3 2.04 4.98 0 1.68-.24 3.76-.72 6.24 4.72-9.16 9-13.74 12.84-13.74zm32.394 0c.64 0 1.32.48 2.04 1.44.76.92 1.14 1.96 1.14 3.12 0 .8-.82 3.52-2.46 8.16-1.64 4.64-2.76 7.8-3.36 9.48-.56 1.64-1.34 3.84-2.34 6.6-.96 2.72-1.9 5.38-2.82 7.98-2 5.72-5 8.58-9 8.58-2.28 0-4.46-.7-6.54-2.1-2.08-1.36-3.12-2.78-3.12-4.26 0-.56.26-1.18.78-1.86.48-.68.9-1.02 1.26-1.02s.94.44 1.74 1.32c2.32 2.64 4.3 3.96 5.94 3.96 1.24 0 2.36-1.1 3.36-3.3 1-2.16 1.94-4.62 2.82-7.38.92-2.72 1.42-4.22 1.5-4.5.12-.28.24-.64.36-1.08.16-.44.3-.84.42-1.2-2.84 3.88-5.64 5.82-8.4 5.82-1.68 0-3.24-.78-4.68-2.34-1.4-1.56-2.1-3.4-2.1-5.52 0-2.12.52-4.98 1.56-8.58 1.04-3.6 2.26-6.72 3.66-9.36 1.4-2.64 2.54-3.96 3.42-3.96.72 0 1.38.34 1.98 1.02.64.64.96 1.3.96 1.98 0 .68-.52 2.1-1.56 4.26-3.24 6.64-4.86 11.8-4.86 15.48 0 .64.2 1.18.6 1.62.4.4.88.6 1.44.6 1.44 0 3.16-1.28 5.16-3.84 2-2.56 3.84-5.6 5.52-9.12 1.4-2.96 2.86-6.74 4.38-11.34.16-.44.56-.66 1.2-.66zm35.347 28.02c-.6 1.24-1.12 1.86-1.56 1.86-.44 0-.98-.36-1.62-1.08-.64-.76-.96-1.4-.96-1.92s.22-1.54.66-3.06c1.92-6.44 3.32-11.68 4.2-15.72-2 .36-3.28.54-3.84.54s-1.16-.3-1.8-.9c-.64-.6-.96-1.22-.96-1.86 0-.68.7-1.22 2.1-1.62 1.44-.4 3.32-.8 5.64-1.2.16-.8.4-2.08.72-3.84.96-5.64 2.24-9.64 3.84-12 1.6-2.4 3.82-3.6 6.66-3.6 2.12 0 4.34.98 6.66 2.94 2.32 1.92 3.48 3.88 3.48 5.88 0 1.96-.5 2.94-1.5 2.94-.72 0-1.58-.58-2.58-1.74-.96-1.2-1.98-2.38-3.06-3.54-1.04-1.2-2-1.8-2.88-1.8-2.04 0-3.98 4.16-5.82 12.48l-.36 1.56c5-.64 8.78-.96 11.34-.96 2.6 0 3.9.98 3.9 2.94 0 1.08-.9 4.48-2.7 10.2-1.8 5.68-3.02 9.64-3.66 11.88-.64 2.2-1.48 3.3-2.52 3.3-.6 0-1.1-.26-1.5-.78-.36-.56-.54-1.18-.54-1.86 0-.72.34-2.38 1.02-4.98.68-2.64 1.48-5.64 2.4-9 .92-3.4 1.56-5.88 1.92-7.44-1.76.08-5.38.6-10.86 1.56-2.76 11.52-4.7 18.46-5.82 20.82zm28.699-20.7l-.18-4.5c0-1.88.44-2.82 1.32-2.82.76 0 1.48.5 2.16 1.5.72.96 1.08 2.12 1.08 3.48 0 1.32-.04 2.32-.12 3 3.48-5.28 6.78-7.92 9.9-7.92 1.96 0 2.94.48 2.94 1.44 0 .48-.22.92-.66 1.32-.44.4-1.14.86-2.1 1.38-2.12.92-3.92 2.34-5.4 4.26-1.44 1.88-2.62 4.02-3.54 6.42-.92 2.4-1.66 4.42-2.22 6.06-.52 1.64-.92 2.92-1.2 3.84-.28.92-.6 1.82-.96 2.7-.64 1.6-1.38 2.4-2.22 2.4-.68 0-1.24-.38-1.68-1.14-.4-.8-.6-1.56-.6-2.28 0-.76.34-2.24 1.02-4.44 1.64-5.04 2.46-9.94 2.46-14.7zm33.424-7.32c1.36 0 2.64.76 3.84 2.28 1.2 1.48 1.8 2.78 1.8 3.9 0 .68-.32 1.02-.96 1.02-.44 0-1.12-.34-2.04-1.02-.92-.72-1.86-1.08-2.82-1.08-.96 0-2.48.56-4.56 1.68-2.04 1.12-3.06 2.3-3.06 3.54 0 .92 1.84 2.5 5.52 4.74 1.4.88 2.66 2.02 3.78 3.42 1.16 1.36 1.74 2.84 1.74 4.44 0 1.56-1.1 3.1-3.3 4.62-2.16 1.48-4.7 2.22-7.62 2.22-2.88 0-5.44-.7-7.68-2.1-2.2-1.4-3.3-2.72-3.3-3.96 0-.52.12-.92.36-1.2.28-.32.62-.48 1.02-.48s.96.26 1.68.78c2.16 1.56 4.4 2.34 6.72 2.34 2.36 0 4.06-.26 5.1-.78 1.04-.56 1.56-1.28 1.56-2.16 0-.92-.58-1.88-1.74-2.88a22.316 22.316 0 00-3.84-2.76c-1.36-.8-2.62-1.78-3.78-2.94-1.16-1.16-1.74-2.34-1.74-3.54 0-2.12 1.66-4.32 4.98-6.6 3.36-2.32 6.14-3.48 8.34-3.48zm15.107 23.76c0 .76.44 1.14 1.32 1.14 1.52 0 3.36-.42 5.52-1.26 2.2-.88 3.42-1.32 3.66-1.32.72 0 1.08.38 1.08 1.14 0 1.16-1.2 2.5-3.6 4.02-2.36 1.52-4.52 2.28-6.48 2.28-1.92 0-3.52-.52-4.8-1.56-1.28-1.08-1.92-2.18-1.92-3.3 0-1.12.24-2.54.72-4.26.48-1.76 1.16-4.06 2.04-6.9.92-2.88 1.64-5.26 2.16-7.14-1.88.44-3.14.66-3.78.66-.64 0-1.28-.32-1.92-.96-.6-.68-.9-1.32-.9-1.92 0-.96 2.6-1.88 7.8-2.76.72-3.32 1.08-6.26 1.08-8.82 0-1.2.4-1.8 1.2-1.8.68 0 1.52.44 2.52 1.32 1 .84 1.5 1.8 1.5 2.88 0 1.08-.34 2.98-1.02 5.7 2.28-.2 4.1-.3 5.46-.3 2.4 0 3.6.52 3.6 1.56 0 .6-.66 1.1-1.98 1.5-1.28.4-4 1.02-8.16 1.86-.84 3.16-1.9 6.78-3.18 10.86-1.28 4.04-1.92 6.5-1.92 7.38zm-128.253 51.06c1.72 0 3.2 1.1 4.44 3.3 1.28 2.2 1.92 4.48 1.92 6.84 0 2.32-.68 4.66-2.04 7.02-1.36 2.32-3.04 4.4-5.04 6.24-2 1.84-4.22 3.38-6.66 4.62-2.4 1.2-4.62 1.8-6.66 1.8-.8 0-1.56-.1-2.28-.3-.16.68-.44 1.9-.84 3.66-.4 1.76-.74 3.22-1.02 4.38-.28 1.16-.6 2.4-.96 3.72-.72 2.72-1.36 4.08-1.92 4.08-.56 0-1.14-.44-1.74-1.32-.64-.84-.96-1.6-.96-2.28 0-.68.64-3.6 1.92-8.76 3.84-15.56 5.76-26.04 5.76-31.44 0-1.2.44-1.8 1.32-1.8.72 0 1.58.54 2.58 1.62 1.04 1.04 1.56 2.2 1.56 3.48 0 .64-.08 1.34-.24 2.1 3.56-4.64 7.18-6.96 10.86-6.96zm-14.64 25.14c2.12 0 4.4-.72 6.84-2.16 2.48-1.44 4.58-3.34 6.3-5.7 1.76-2.4 2.64-4.78 2.64-7.14 0-3.32-.78-4.98-2.34-4.98-1.56 0-3.68 1.34-6.36 4.02-2.64 2.68-4.74 6.16-6.3 10.44l-1.38 5.52h.6zm27.273-17.64l-.18-4.5c0-1.88.44-2.82 1.32-2.82.76 0 1.48.5 2.16 1.5.72.96 1.08 2.12 1.08 3.48 0 1.32-.04 2.32-.12 3 3.48-5.28 6.78-7.92 9.9-7.92 1.96 0 2.94.48 2.94 1.44 0 .48-.22.92-.66 1.32-.44.4-1.14.86-2.1 1.38-2.12.92-3.92 2.34-5.4 4.26-1.44 1.88-2.62 4.02-3.54 6.42-.92 2.4-1.66 4.42-2.22 6.06-.52 1.64-.92 2.92-1.2 3.84-.28.92-.6 1.82-.96 2.7-.64 1.6-1.38 2.4-2.22 2.4-.68 0-1.24-.38-1.68-1.14-.4-.8-.6-1.56-.6-2.28 0-.76.34-2.24 1.02-4.44 1.64-5.04 2.46-9.94 2.46-14.7zm34.383 2.88c0-1.36-.22-2.64-.66-3.84-.44-1.24-1.08-2.14-1.92-2.7-2.76.76-5.14 2.9-7.14 6.42-1.96 3.48-2.94 6.76-2.94 9.84s.76 5 2.28 5.76c2.88-.56 5.32-2.52 7.32-5.88 2.04-3.4 3.06-6.6 3.06-9.6zm-15.78.54c1.4-3.12 3.22-5.68 5.46-7.68 2.28-2.04 4.6-3.06 6.96-3.06 2.4 0 4.4 1.02 6 3.06 1.6 2 2.4 4.46 2.4 7.38 0 2.88-.7 5.84-2.1 8.88-1.4 3-3.34 5.5-5.82 7.5-2.44 1.96-5.04 2.94-7.8 2.94-2.04 0-3.74-.94-5.1-2.82-1.36-1.88-2.04-4.26-2.04-7.14 0-2.92.68-5.94 2.04-9.06zm14.047 27.18c1.72 2.2 3.14 3.3 4.26 3.3 1.12 0 2.06-.6 2.82-1.8.76-1.2 1.5-3.1 2.22-5.7.72-2.56 1.4-5.2 2.04-7.92.64-2.72 1.46-6.32 2.46-10.8 1.04-4.48 2.04-8.5 3-12.06.6-1.96 1.18-2.94 1.74-2.94.68 0 1.38.44 2.1 1.32.72.84 1.08 1.76 1.08 2.76 0 .92-.62 3.72-1.86 8.4-1.24 4.64-2.34 8.82-3.3 12.54l-2.82 10.92c-1.72 6.28-4.84 9.42-9.36 9.42-2 0-3.94-.84-5.82-2.52-1.92-1.68-2.88-3.12-2.88-4.32 0-.52.22-1.14.66-1.86.4-.68.78-1.02 1.14-1.02.44 0 .9.28 1.38.84.48.6.86 1.08 1.14 1.44zm19.26-46.44c0-.8.32-1.56.96-2.28.64-.72 1.3-1.08 1.98-1.08.68 0 1.46.82 2.34 2.46.92 1.6 1.38 2.94 1.38 4.02 0 .4-.18.76-.54 1.08-.36.32-.72.48-1.08.48-.96 0-2.04-.58-3.24-1.74-1.2-1.16-1.8-2.14-1.8-2.94zm30.715 18.48c0 2.12-1.16 3.86-3.48 5.22-2.28 1.32-4.88 1.98-7.8 1.98-2.88 0-5.5-.32-7.86-.96-.56 1.76-.84 3.34-.84 4.74 0 1.36.42 2.42 1.26 3.18.88.76 2.3 1.14 4.26 1.14 2 0 4.04-.34 6.12-1.02 2.12-.72 3.28-1.08 3.48-1.08 1.04 0 1.56.4 1.56 1.2 0 1.08-1.22 2.26-3.66 3.54-2.44 1.24-4.82 1.86-7.14 1.86-3.12 0-5.66-.92-7.62-2.76-1.96-1.88-2.94-4.24-2.94-7.08s.76-5.8 2.28-8.88c1.52-3.12 3.48-5.74 5.88-7.86s4.78-3.18 7.14-3.18c2.36 0 4.5 1.12 6.42 3.36 1.96 2.24 2.94 4.44 2.94 6.6zm-9.06-5.22c-1.48 0-3.02.78-4.62 2.34-1.6 1.52-2.96 3.42-4.08 5.7 1.6.36 3.42.54 5.46.54s3.82-.32 5.34-.96c1.52-.68 2.28-1.56 2.28-2.64s-.5-2.18-1.5-3.3c-.96-1.12-1.92-1.68-2.88-1.68zm21.791 25.02c-2.32 0-4.5-.9-6.54-2.7-2.04-1.84-3.06-4-3.06-6.48 0-2.52.84-5.42 2.52-8.7 1.68-3.28 3.84-6.08 6.48-8.4 2.68-2.32 5.28-3.48 7.8-3.48 1.64 0 3.08.74 4.32 2.22 1.24 1.48 1.86 2.78 1.86 3.9 0 .32-.1.6-.3.84-.2.2-.5.3-.9.3-.36 0-1.02-.36-1.98-1.08-.96-.72-1.82-1.08-2.58-1.08-2.16 0-4.68 1.9-7.56 5.7-2.88 3.8-4.32 7.12-4.32 9.96 0 1.24.38 2.22 1.14 2.94.8.72 2.06 1.08 3.78 1.08 1.76 0 3.36-.2 4.8-.6 1.48-.44 2.62-.86 3.42-1.26.8-.44 1.42-.66 1.86-.66.76 0 1.14.38 1.14 1.14 0 1.16-1.4 2.52-4.2 4.08-2.76 1.52-5.32 2.28-7.68 2.28zm23.779-6c0 .76.44 1.14 1.32 1.14 1.52 0 3.36-.42 5.52-1.26 2.2-.88 3.42-1.32 3.66-1.32.72 0 1.08.38 1.08 1.14 0 1.16-1.2 2.5-3.6 4.02-2.36 1.52-4.52 2.28-6.48 2.28-1.92 0-3.52-.52-4.8-1.56-1.28-1.08-1.92-2.18-1.92-3.3 0-1.12.24-2.54.72-4.26.48-1.76 1.16-4.06 2.04-6.9.92-2.88 1.64-5.26 2.16-7.14-1.88.44-3.14.66-3.78.66-.64 0-1.28-.32-1.92-.96-.6-.68-.9-1.32-.9-1.92 0-.96 2.6-1.88 7.8-2.76.72-3.32 1.08-6.26 1.08-8.82 0-1.2.4-1.8 1.2-1.8.68 0 1.52.44 2.52 1.32 1 .84 1.5 1.8 1.5 2.88 0 1.08-.34 2.98-1.02 5.7 2.28-.2 4.1-.3 5.46-.3 2.4 0 3.6.52 3.6 1.56 0 .6-.66 1.1-1.98 1.5-1.28.4-4 1.02-8.16 1.86-.84 3.16-1.9 6.78-3.18 10.86-1.28 4.04-1.92 6.5-1.92 7.38zm19.723-.42c.68-.84 1.36-1.26 2.04-1.26.68 0 1.5.98 2.46 2.94.96 1.92 1.44 3.36 1.44 4.32 0 .28-.2.6-.6.96-.4.36-.78.54-1.14.54-1 0-2.12-.62-3.36-1.86-1.24-1.28-1.86-2.32-1.86-3.12 0-.84.34-1.68 1.02-2.52zm7.74-41.28c.76 0 1.8.48 3.12 1.44s1.98 1.72 1.98 2.28c0 3.4-.88 9.38-2.64 17.94-1.72 8.56-3.1 12.84-4.14 12.84-.64 0-1.24-.32-1.8-.96-.56-.68-.84-1.38-.84-2.1-.04-.24.2-1.68.72-4.32.56-2.64 1.14-6.34 1.74-11.1.6-4.8.9-9.62.9-14.46 0-1.04.32-1.56.96-1.56z" fill="#6FB649"/><g filter="url(#filter0_d_13_3)"><path d="M1 219c0-16.016 12.984-29 29-29h290.732c7.842 0 15.35 3.176 20.812 8.804l85.384 87.983c11.49 11.84 10.801 30.867-1.515 41.845l-84.165 75.017A29 29 0 01321.952 411H30c-16.016 0-29-12.984-29-29V219z" fill="#78D369"/></g><path d="M64.2 287.98c-.48 0-1.14-.52-1.98-1.56-.84-1.08-1.26-2.1-1.26-3.06s.88-4.88 2.64-11.76c-.52-.2-.98-.54-1.38-1.02-.36-.52-.54-1.1-.54-1.74 0-.52 1.04-1.1 3.12-1.74 2.68-10.48 4.02-16.98 4.02-19.5 0-.68.08-1.14.24-1.38.2-.28.56-.42 1.08-.42.56 0 1.28.62 2.16 1.86.92 1.24 1.38 2.64 1.38 4.2 0 1.52-.98 6.14-2.94 13.86 5.28-1.08 10.46-1.78 15.54-2.1 2.04-8.32 3.06-13.66 3.06-16.02 0-1.2.4-1.8 1.2-1.8.68 0 1.48.62 2.4 1.86.92 1.24 1.38 2.54 1.38 3.9 0 1.32-.9 5.38-2.7 12.18 1.84.28 2.76.84 2.76 1.68 0 .8-1.24 1.46-3.72 1.98-1.28 4.72-2.16 8-2.64 9.84-.44 1.8-.8 3.24-1.08 4.32s-.58 2.16-.9 3.24c-.56 2.12-1.06 3.18-1.5 3.18-.56 0-1.22-.46-1.98-1.38-.72-.96-1.08-1.94-1.08-2.94s1.2-6.14 3.6-15.42c-5.84.8-11.1 1.72-15.78 2.76-.56 2.08-1.1 4.1-1.62 6.06-.48 1.92-.86 3.42-1.14 4.5-.28 1.08-.58 2.16-.9 3.24-.56 2.12-1.04 3.18-1.44 3.18zm58.795-19.68c0 2.12-1.16 3.86-3.48 5.22-2.28 1.32-4.88 1.98-7.8 1.98-2.88 0-5.5-.32-7.86-.96-.56 1.76-.84 3.34-.84 4.74 0 1.36.42 2.42 1.26 3.18.88.76 2.3 1.14 4.26 1.14 2 0 4.04-.34 6.12-1.02 2.12-.72 3.28-1.08 3.48-1.08 1.04 0 1.56.4 1.56 1.2 0 1.08-1.22 2.26-3.66 3.54-2.44 1.24-4.82 1.86-7.14 1.86-3.12 0-5.66-.92-7.62-2.76-1.96-1.88-2.94-4.24-2.94-7.08s.76-5.8 2.28-8.88c1.52-3.12 3.48-5.74 5.88-7.86s4.78-3.18 7.14-3.18c2.36 0 4.5 1.12 6.42 3.36 1.96 2.24 2.94 4.44 2.94 6.6zm-9.06-5.22c-1.48 0-3.02.78-4.62 2.34-1.6 1.52-2.96 3.42-4.08 5.7 1.6.36 3.42.54 5.46.54s3.82-.32 5.34-.96c1.52-.68 2.28-1.56 2.28-2.64s-.5-2.18-1.5-3.3c-.96-1.12-1.92-1.68-2.88-1.68zm23.952-16.5c0 7.52-1.56 17.28-4.68 29.28-2 8.16-3.4 12.24-4.2 12.24-.56 0-1.22-.44-1.98-1.32-.72-.88-1.08-1.56-1.08-2.04s.58-2.96 1.74-7.44c1.16-4.48 2.32-9.98 3.48-16.5 1.16-6.56 1.74-12.46 1.74-17.7 0-.56.08-.96.24-1.2.16-.24.5-.36 1.02-.36s1.26.58 2.22 1.74c1 1.12 1.5 2.22 1.5 3.3zm14.707 0c0 7.52-1.56 17.28-4.68 29.28-2 8.16-3.4 12.24-4.2 12.24-.56 0-1.22-.44-1.98-1.32-.72-.88-1.08-1.56-1.08-2.04s.58-2.96 1.74-7.44c1.16-4.48 2.32-9.98 3.48-16.5 1.16-6.56 1.74-12.46 1.74-17.7 0-.56.08-.96.24-1.2.16-.24.5-.36 1.02-.36s1.26.58 2.22 1.74c1 1.12 1.5 2.22 1.5 3.3zm21.007 21.96c0-1.36-.22-2.64-.66-3.84-.44-1.24-1.08-2.14-1.92-2.7-2.76.76-5.14 2.9-7.14 6.42-1.96 3.48-2.94 6.76-2.94 9.84s.76 5 2.28 5.76c2.88-.56 5.32-2.52 7.32-5.88 2.04-3.4 3.06-6.6 3.06-9.6zm-15.78.54c1.4-3.12 3.22-5.68 5.46-7.68 2.28-2.04 4.6-3.06 6.96-3.06 2.4 0 4.4 1.02 6 3.06 1.6 2 2.4 4.46 2.4 7.38 0 2.88-.7 5.84-2.1 8.88-1.4 3-3.34 5.5-5.82 7.5-2.44 1.96-5.04 2.94-7.8 2.94-2.04 0-3.74-.94-5.1-2.82-1.36-1.88-2.04-4.26-2.04-7.14 0-2.92.68-5.94 2.04-9.06zm42.968-.54c0-1.36-.22-2.64-.66-3.84-.44-1.24-1.08-2.14-1.92-2.7-2.76.76-5.14 2.9-7.14 6.42-1.96 3.48-2.94 6.76-2.94 9.84s.76 5 2.28 5.76c2.88-.56 5.32-2.52 7.32-5.88 2.04-3.4 3.06-6.6 3.06-9.6zm-15.78.54c1.4-3.12 3.22-5.68 5.46-7.68 2.28-2.04 4.6-3.06 6.96-3.06 2.4 0 4.4 1.02 6 3.06 1.6 2 2.4 4.46 2.4 7.38 0 2.88-.7 5.84-2.1 8.88-1.4 3-3.34 5.5-5.82 7.5-2.44 1.96-5.04 2.94-7.8 2.94-2.04 0-3.74-.94-5.1-2.82-1.36-1.88-2.04-4.26-2.04-7.14 0-2.92.68-5.94 2.04-9.06zm42.967-.54c0-1.36-.22-2.64-.66-3.84-.44-1.24-1.08-2.14-1.92-2.7-2.76.76-5.14 2.9-7.14 6.42-1.96 3.48-2.94 6.76-2.94 9.84s.76 5 2.28 5.76c2.88-.56 5.32-2.52 7.32-5.88 2.04-3.4 3.06-6.6 3.06-9.6zm-15.78.54c1.4-3.12 3.22-5.68 5.46-7.68 2.28-2.04 4.6-3.06 6.96-3.06 2.4 0 4.4 1.02 6 3.06 1.6 2 2.4 4.46 2.4 7.38 0 2.88-.7 5.84-2.1 8.88-1.4 3-3.34 5.5-5.82 7.5-2.44 1.96-5.04 2.94-7.8 2.94-2.04 0-3.74-.94-5.1-2.82-1.36-1.88-2.04-4.26-2.04-7.14 0-2.92.68-5.94 2.04-9.06zm42.968-.54c0-1.36-.22-2.64-.66-3.84-.44-1.24-1.08-2.14-1.92-2.7-2.76.76-5.14 2.9-7.14 6.42-1.96 3.48-2.94 6.76-2.94 9.84s.76 5 2.28 5.76c2.88-.56 5.32-2.52 7.32-5.88 2.04-3.4 3.06-6.6 3.06-9.6zm-15.78.54c1.4-3.12 3.22-5.68 5.46-7.68 2.28-2.04 4.6-3.06 6.96-3.06 2.4 0 4.4 1.02 6 3.06 1.6 2 2.4 4.46 2.4 7.38 0 2.88-.7 5.84-2.1 8.88-1.4 3-3.34 5.5-5.82 7.5-2.44 1.96-5.04 2.94-7.8 2.94-2.04 0-3.74-.94-5.1-2.82-1.36-1.88-2.04-4.26-2.04-7.14 0-2.92.68-5.94 2.04-9.06zm28.087 12.6c.68-.84 1.36-1.26 2.04-1.26.68 0 1.5.98 2.46 2.94.96 1.92 1.44 3.36 1.44 4.32 0 .28-.2.6-.6.96-.4.36-.78.54-1.14.54-1 0-2.12-.62-3.36-1.86-1.24-1.28-1.86-2.32-1.86-3.12 0-.84.34-1.68 1.02-2.52zm7.74-41.28c.76 0 1.8.48 3.12 1.44s1.98 1.72 1.98 2.28c0 3.4-.88 9.38-2.64 17.94-1.72 8.56-3.1 12.84-4.14 12.84-.64 0-1.24-.32-1.8-.96-.56-.68-.84-1.38-.84-2.1-.04-.24.2-1.68.72-4.32.56-2.64 1.14-6.34 1.74-11.1.6-4.8.9-9.62.9-14.46 0-1.04.32-1.56.96-1.56zM86.88 320.86c4.68 0 8.22 1.86 10.62 5.58 2.4 3.72 3.6 8.4 3.6 14.04 0 5.64-1.4 10.78-4.2 15.42-2.76 4.6-5.96 6.9-9.6 6.9-2.56 0-4.44-1.44-5.64-4.32-1.2-2.88-1.98-6.98-2.34-12.3-1.68 2.36-3.6 5.04-5.76 8.04-4.16 5.76-7.08 8.64-8.76 8.64-.64 0-1.38-.52-2.22-1.56-.84-1.04-1.26-2.34-1.26-3.9 0-1.6.54-6.54 1.62-14.82 1.08-8.32 1.62-14.8 1.62-19.44 0-1.48.44-2.22 1.32-2.22.88 0 1.9.52 3.06 1.56 1.2 1.04 1.8 2 1.8 2.88 0 .84-.68 5.06-2.04 12.66-1.32 7.6-2.14 13.56-2.46 17.88 2.44-4.12 5.18-7.92 8.22-11.4 3.08-3.52 5.28-5.28 6.6-5.28 1.36 0 2.3 3 2.82 9 .2 2.24.58 4.3 1.14 6.18.6 1.88 1.4 2.82 2.4 2.82 2.24 0 4.18-1.8 5.82-5.4 1.68-3.64 2.52-7.66 2.52-12.06 0-4.88-1.08-8.64-3.24-11.28-1.12-1.4-2.36-2.1-3.72-2.1-1.32 0-2.46-.46-3.42-1.38-.92-.92-1.38-1.72-1.38-2.4 0-1.16.96-1.74 2.88-1.74zm42.854 22.44c0 2.12-1.16 3.86-3.48 5.22-2.28 1.32-4.88 1.98-7.8 1.98-2.88 0-5.5-.32-7.86-.96-.56 1.76-.84 3.34-.84 4.74 0 1.36.42 2.42 1.26 3.18.88.76 2.3 1.14 4.26 1.14 2 0 4.04-.34 6.12-1.02 2.12-.72 3.28-1.08 3.48-1.08 1.04 0 1.56.4 1.56 1.2 0 1.08-1.22 2.26-3.66 3.54-2.44 1.24-4.82 1.86-7.14 1.86-3.12 0-5.66-.92-7.62-2.76-1.96-1.88-2.94-4.24-2.94-7.08s.76-5.8 2.28-8.88c1.52-3.12 3.48-5.74 5.88-7.86s4.78-3.18 7.14-3.18c2.36 0 4.5 1.12 6.42 3.36 1.96 2.24 2.94 4.44 2.94 6.6zm-9.06-5.22c-1.48 0-3.02.78-4.62 2.34-1.6 1.52-2.96 3.42-4.08 5.7 1.6.36 3.42.54 5.46.54s3.82-.32 5.34-.96c1.52-.68 2.28-1.56 2.28-2.64s-.5-2.18-1.5-3.3c-.96-1.12-1.92-1.68-2.88-1.68zm23.951-16.5c0 7.52-1.56 17.28-4.68 29.28-2 8.16-3.4 12.24-4.2 12.24-.56 0-1.22-.44-1.98-1.32-.72-.88-1.08-1.56-1.08-2.04s.58-2.96 1.74-7.44c1.16-4.48 2.32-9.98 3.48-16.5 1.16-6.56 1.74-12.46 1.74-17.7 0-.56.08-.96.24-1.2.16-.24.5-.36 1.02-.36s1.26.58 2.22 1.74c1 1.12 1.5 2.22 1.5 3.3zm12.547 41.52c-2.32 0-4.5-.9-6.54-2.7-2.04-1.84-3.06-4-3.06-6.48 0-2.52.84-5.42 2.52-8.7 1.68-3.28 3.84-6.08 6.48-8.4 2.68-2.32 5.28-3.48 7.8-3.48 1.64 0 3.08.74 4.32 2.22 1.24 1.48 1.86 2.78 1.86 3.9 0 .32-.1.6-.3.84-.2.2-.5.3-.9.3-.36 0-1.02-.36-1.98-1.08-.96-.72-1.82-1.08-2.58-1.08-2.16 0-4.68 1.9-7.56 5.7-2.88 3.8-4.32 7.12-4.32 9.96 0 1.24.38 2.22 1.14 2.94.8.72 2.06 1.08 3.78 1.08 1.76 0 3.36-.2 4.8-.6 1.48-.44 2.62-.86 3.42-1.26.8-.44 1.42-.66 1.86-.66.76 0 1.14.38 1.14 1.14 0 1.16-1.4 2.52-4.2 4.08-2.76 1.52-5.32 2.28-7.68 2.28zm35.179-19.56c0-1.36-.22-2.64-.66-3.84-.44-1.24-1.08-2.14-1.92-2.7-2.76.76-5.14 2.9-7.14 6.42-1.96 3.48-2.94 6.76-2.94 9.84s.76 5 2.28 5.76c2.88-.56 5.32-2.52 7.32-5.88 2.04-3.4 3.06-6.6 3.06-9.6zm-15.78.54c1.4-3.12 3.22-5.68 5.46-7.68 2.28-2.04 4.6-3.06 6.96-3.06 2.4 0 4.4 1.02 6 3.06 1.6 2 2.4 4.46 2.4 7.38 0 2.88-.7 5.84-2.1 8.88-1.4 3-3.34 5.5-5.82 7.5-2.44 1.96-5.04 2.94-7.8 2.94-2.04 0-3.74-.94-5.1-2.82-1.36-1.88-2.04-4.26-2.04-7.14 0-2.92.68-5.94 2.04-9.06zm63.668-10.74c1.2 0 2.26.84 3.18 2.52.96 1.64 1.44 3.52 1.44 5.64 0 2.08-.38 4.8-1.14 8.16-.72 3.36-1.7 6.44-2.94 9.24s-2.46 4.2-3.66 4.2c-.84 0-1.26-.54-1.26-1.62 0-1.12.68-3.82 2.04-8.1 1.4-4.32 2.1-7.74 2.1-10.26 0-2.56-.4-3.84-1.2-3.84-1 0-2.16.88-3.48 2.64-1.28 1.76-2.66 3.88-4.14 6.36l-2.4 4.02c-.12.16-.28.4-.48.72-.16.32-.36.66-.6 1.02-.2.36-.76 1.44-1.68 3.24-.88 1.8-1.66 3.22-2.34 4.26-.68 1-1.28 1.5-1.8 1.5-.48 0-1.02-.32-1.62-.96-.6-.64-.9-1.24-.9-1.8s.36-1.72 1.08-3.48c2.08-5.2 3.12-10.04 3.12-14.52 0-.84-.18-1.54-.54-2.1-.36-.6-.76-.9-1.2-.9-.44 0-.9.2-1.38.6-.48.36-1.08 1.04-1.8 2.04-.72.96-1.36 1.88-1.92 2.76-.56.88-1.42 2.26-2.58 4.14-1.12 1.84-1.98 3.22-2.58 4.14-.56.88-1.22 1.92-1.98 3.12-.76 1.16-1.36 2.06-1.8 2.7-.4.64-.86 1.34-1.38 2.1-1.08 1.48-1.88 2.22-2.4 2.22-.48 0-1.12-.44-1.92-1.32-.8-.92-1.2-1.6-1.2-2.04 0-.48.08-1.06.24-1.74.16-.68.32-1.34.48-1.98.2-.64.48-1.58.84-2.82.4-1.28.84-2.76 1.32-4.44.52-1.72.9-4.06 1.14-7.02.28-3 .48-5.18.6-6.54.12-1.4.46-2.1 1.02-2.1.88 0 1.74.46 2.58 1.38.88.92 1.32 1.84 1.32 2.76 0 3.52-1.32 9.32-3.96 17.4 4.48-8.4 7.3-13.38 8.46-14.94 1.16-1.56 2.16-2.82 3-3.78 1.56-1.72 3.14-2.58 4.74-2.58.96 0 2.1.84 3.42 2.52 1.36 1.64 2.04 3.3 2.04 4.98 0 1.68-.24 3.76-.72 6.24 4.72-9.16 9-13.74 12.84-13.74zm32.874 9.96c0 2.12-1.16 3.86-3.48 5.22-2.28 1.32-4.88 1.98-7.8 1.98-2.88 0-5.5-.32-7.86-.96-.56 1.76-.84 3.34-.84 4.74 0 1.36.42 2.42 1.26 3.18.88.76 2.3 1.14 4.26 1.14 2 0 4.04-.34 6.12-1.02 2.12-.72 3.28-1.08 3.48-1.08 1.04 0 1.56.4 1.56 1.2 0 1.08-1.22 2.26-3.66 3.54-2.44 1.24-4.82 1.86-7.14 1.86-3.12 0-5.66-.92-7.62-2.76-1.96-1.88-2.94-4.24-2.94-7.08s.76-5.8 2.28-8.88c1.52-3.12 3.48-5.74 5.88-7.86s4.78-3.18 7.14-3.18c2.36 0 4.5 1.12 6.42 3.36 1.96 2.24 2.94 4.44 2.94 6.6zm-9.06-5.22c-1.48 0-3.02.78-4.62 2.34-1.6 1.52-2.96 3.42-4.08 5.7 1.6.36 3.42.54 5.46.54s3.82-.32 5.34-.96c1.52-.68 2.28-1.56 2.28-2.64s-.5-2.18-1.5-3.3c-.96-1.12-1.92-1.68-2.88-1.68z" fill="#D3FFBC"/><defs><filter id="filter0_d_13_3" x="0" y="190" width="442.117" height="231" filterUnits="userSpaceOnUse" color-interpolation-filters="sRGB"><feFlood flood-opacity="0" result="BackgroundImageFix"/><feColorMatrix in="SourceAlpha" values="0 0 0 0 0 0 0 0 0 0 0 0 0 0 0 0 0 0 127 0" result="hardAlpha"/><feOffset dx="3" dy="6"/><feGaussianBlur stdDeviation="2"/><feComposite in2="hardAlpha" operator="out"/><feColorMatrix values="0 0 0 0 0 0 0 0 0 0 0 0 0 0 0 0 0 0 0.25 0"/><feBlend in2="BackgroundImageFix" result="effect1_dropShadow_13_3"/><feBlend in="SourceGraphic" in2="effect1_dropShadow_13_3" result="shape"/></filter></defs></svg>