<svg width="848" height="422" fill="none" xmlns="http://www.w3.org/2000/svg"><g filter="url(#filter0_d_13_2)"><path d="M4 40C4 17.909 21.909 0 44 0h675c33.689 0 61 27.31 61 61v319c0 18.778-15.222 34-34 34H94c-49.706 0-90-40.294-90-90V40z" fill="url(#paint0_linear_13_2)"/><path d="M44 3h675c32.033 0 58 25.968 58 58v319c0 17.121-13.879 31-31 31H94c-48.049 0-87-38.951-87-87V40C7 19.566 23.566 3 44 3z" stroke="#fff" stroke-width="6"/></g><path d="M267.15 222L204.938 50.032C189.386 50.76 177 63.598 177 79.33V222h90.15z" fill="url(#paint1_linear_13_2)" stroke="#fff" stroke-width="4"/><path d="M272.861 222l62.866-171.968C351.464 50.756 364 63.744 364 79.66V222h-91.139z" fill="url(#paint2_linear_13_2)" stroke="#fff" stroke-width="4"/><path d="M107.141 130.768L57.907 52.964h109.295L91.471 209.111c-4.83 9.958-17.127 14.265-26.973 9.796l42.725-86.3.475-.96-.557-.879z" fill="url(#paint3_linear_13_2)" stroke="#fff" stroke-width="4"/><path d="M54.768 307.272c-.485 0-1.008-.355-1.568-1.064-.56-.709-.84-1.288-.84-1.736 0-.448.187-1.325.56-2.632 1.867-6.72 3.136-11.517 3.808-14.392-1.605.373-2.707.56-3.304.56s-1.195-.261-1.792-.784-.896-1.101-.896-1.736.84-1.195 2.52-1.68c2.165-.523 3.659-.859 4.48-1.008.373-1.792.653-3.173.84-4.144.896-5.152 2.11-8.867 3.64-11.144 1.53-2.277 3.603-3.416 6.216-3.416 1.867 0 3.397.747 4.592 2.24 1.195 1.456 1.792 3.192 1.792 5.208 0 1.979-.523 2.968-1.568 2.968-.896 0-1.624-1.008-2.184-3.024a6.152 6.152 0 00-.952-2.072c-.448-.635-.99-.952-1.624-.952-.635 0-1.213.299-1.736.896-.523.56-.99 1.381-1.4 2.464-1.083 3.024-1.83 5.787-2.24 8.288l-.448 1.96a30.447 30.447 0 014.088-.28c1.381 0 2.37.149 2.968.448.635.299.952.672.952 1.12 0 .709-.616 1.251-1.848 1.624-1.232.373-3.64.859-7.224 1.456-2.65 10.752-4.461 17.155-5.432 19.208-.523 1.083-.99 1.624-1.4 1.624zm18.703-21.056l-.168-4.2c0-1.755.41-2.632 1.232-2.632.709 0 1.381.467 2.016 1.4.672.896 1.008 1.979 1.008 3.248 0 1.232-.038 2.165-.112 2.8 3.248-4.928 6.328-7.392 9.24-7.392 1.829 0 2.744.448 2.744 1.344 0 .448-.206.859-.616 1.232-.411.373-1.064.803-1.96 1.288-1.979.859-3.659 2.184-5.04 3.976-1.344 1.755-2.446 3.752-3.304 5.992-.859 2.24-1.55 4.125-2.072 5.656a344.676 344.676 0 00-1.12 3.584c-.262.859-.56 1.699-.896 2.52-.598 1.493-1.288 2.24-2.072 2.24-.635 0-1.158-.355-1.568-1.064-.374-.747-.56-1.456-.56-2.128 0-.709.317-2.091.952-4.144 1.53-4.704 2.296-9.277 2.296-13.72zm30.411 2.688c0-1.269-.206-2.464-.616-3.584-.411-1.157-1.008-1.997-1.792-2.52-2.576.709-4.798 2.707-6.664 5.992-1.83 3.248-2.744 6.309-2.744 9.184 0 2.875.71 4.667 2.128 5.376 2.688-.523 4.965-2.352 6.832-5.488 1.904-3.173 2.856-6.16 2.856-8.96zm-14.728.504c1.306-2.912 3.005-5.301 5.096-7.168 2.128-1.904 4.293-2.856 6.496-2.856 2.24 0 4.106.952 5.6 2.856 1.493 1.867 2.24 4.163 2.24 6.888 0 2.688-.654 5.451-1.96 8.288-1.307 2.8-3.118 5.133-5.432 7-2.278 1.829-4.704 2.744-7.28 2.744-1.904 0-3.49-.877-4.76-2.632-1.27-1.755-1.904-3.976-1.904-6.664 0-2.725.634-5.544 1.904-8.456zm26.999 8.008c3.584-6.085 6.496-10.603 8.736-13.552 2.277-2.987 4.125-4.48 5.544-4.48 1.456 0 2.818.765 4.088 2.296 1.306 1.531 1.96 3.155 1.96 4.872 0 2.688-.616 5.973-1.848 9.856-2.24 7.168-4.256 10.752-6.048 10.752-.822 0-1.232-.56-1.232-1.68 0-.784.392-2.371 1.176-4.76a170.834 170.834 0 002.24-7.112c.709-2.352 1.064-4.107 1.064-5.264 0-1.195-.187-2.072-.56-2.632-.336-.56-.691-.84-1.064-.84-.336 0-.691.112-1.064.336-.374.224-.803.597-1.288 1.12a46.744 46.744 0 00-1.288 1.568c-.411.485-.934 1.195-1.568 2.128-.598.933-1.102 1.736-1.512 2.408-.411.635-1.008 1.568-1.792 2.8a527.616 527.616 0 01-1.792 2.8 167.7 167.7 0 00-1.624 2.576 68.3 68.3 0 01-1.624 2.52 58.525 58.525 0 01-1.288 1.96c-.934 1.381-1.68 2.072-2.24 2.072-.523 0-1.139-.411-1.848-1.232-.71-.859-1.064-1.605-1.064-2.24 0-.187.13-.691.392-1.512.709-2.165 1.493-4.835 2.352-8.008.858-3.211 1.325-6.851 1.4-10.92.112-2.725.504-4.088 1.176-4.088.821 0 1.642.429 2.464 1.288.821.859 1.232 1.811 1.232 2.856 0 1.008-.318 2.987-.952 5.936a76.809 76.809 0 01-2.128 8.176zm28.963 4.144c0 .709.411 1.064 1.232 1.064 1.419 0 3.136-.392 5.152-1.176 2.053-.821 3.192-1.232 3.416-1.232.672 0 1.008.355 1.008 1.064 0 1.083-1.12 2.333-3.36 3.752-2.203 1.419-4.219 2.128-6.048 2.128-1.792 0-3.285-.485-4.48-1.456-1.195-1.008-1.792-2.035-1.792-3.08s.224-2.371.672-3.976c.448-1.643 1.083-3.789 1.904-6.44.859-2.688 1.531-4.909 2.016-6.664-1.755.411-2.931.616-3.528.616s-1.195-.299-1.792-.896c-.56-.635-.84-1.232-.84-1.792 0-.896 2.427-1.755 7.28-2.576.672-3.099 1.008-5.843 1.008-8.232 0-1.12.373-1.68 1.12-1.68.635 0 1.419.411 2.352 1.232.933.784 1.4 1.68 1.4 2.688 0 1.008-.317 2.781-.952 5.32 2.128-.187 3.827-.28 5.096-.28 2.24 0 3.36.485 3.36 1.456 0 .56-.616 1.027-1.848 1.4-1.195.373-3.733.952-7.616 1.736-.784 2.949-1.773 6.328-2.968 10.136-1.195 3.771-1.792 6.067-1.792 6.888zm36.048-12.88c0 1.979-1.082 3.603-3.248 4.872-2.128 1.232-4.554 1.848-7.28 1.848-2.688 0-5.133-.299-7.336-.896-.522 1.643-.784 3.117-.784 4.424 0 1.269.392 2.259 1.176 2.968.822.709 2.147 1.064 3.976 1.064 1.867 0 3.771-.317 5.712-.952 1.979-.672 3.062-1.008 3.248-1.008.971 0 1.456.373 1.456 1.12 0 1.008-1.138 2.109-3.416 3.304-2.277 1.157-4.498 1.736-6.664 1.736-2.912 0-5.282-.859-7.112-2.576-1.829-1.755-2.744-3.957-2.744-6.608s.71-5.413 2.128-8.288c1.419-2.912 3.248-5.357 5.488-7.336s4.462-2.968 6.664-2.968c2.203 0 4.2 1.045 5.992 3.136 1.83 2.091 2.744 4.144 2.744 6.16zm-8.456-4.872c-1.381 0-2.818.728-4.312 2.184-1.493 1.419-2.762 3.192-3.808 5.32 1.494.336 3.192.504 5.096.504s3.566-.299 4.984-.896c1.419-.635 2.128-1.456 2.128-2.464s-.466-2.035-1.4-3.08c-.896-1.045-1.792-1.568-2.688-1.568zm15.131 13.608c3.584-6.085 6.496-10.603 8.736-13.552 2.278-2.987 4.126-4.48 5.544-4.48 1.456 0 2.819.765 4.088 2.296 1.307 1.531 1.96 3.155 1.96 4.872 0 2.688-.616 5.973-1.848 9.856-2.24 7.168-4.256 10.752-6.048 10.752-.821 0-1.232-.56-1.232-1.68 0-.784.392-2.371 1.176-4.76a169.345 169.345 0 002.24-7.112c.71-2.352 1.064-4.107 1.064-5.264 0-1.195-.186-2.072-.56-2.632-.336-.56-.69-.84-1.064-.84-.336 0-.69.112-1.064.336-.373.224-.802.597-1.288 1.12a48.007 48.007 0 00-1.288 1.568c-.41.485-.933 1.195-1.568 2.128-.597.933-1.101 1.736-1.512 2.408-.41.635-1.008 1.568-1.792 2.8a469.527 469.527 0 01-1.792 2.8 175.9 175.9 0 00-1.624 2.576 66.995 66.995 0 01-1.624 2.52 55.553 55.553 0 01-1.288 1.96c-.933 1.381-1.68 2.072-2.24 2.072-.522 0-1.138-.411-1.848-1.232-.709-.859-1.064-1.605-1.064-2.24 0-.187.131-.691.392-1.512.71-2.165 1.494-4.835 2.352-8.008.859-3.211 1.326-6.851 1.4-10.92.112-2.725.504-4.088 1.176-4.088.822 0 1.643.429 2.464 1.288.822.859 1.232 1.811 1.232 2.856 0 1.008-.317 2.987-.952 5.936a76.333 76.333 0 01-2.128 8.176zm46.66-33.712c.597 0 1.325.56 2.184 1.68.896 1.083 1.344 2.109 1.344 3.08 0 .971-.467 3.733-1.4 8.288a323.021 323.021 0 01-3.248 14.056c-2.688 10.901-4.462 16.352-5.32 16.352-.523 0-1.102-.317-1.736-.952-.598-.672-.896-1.251-.896-1.736 0-.485.13-1.456.392-2.912-3.659 3.733-6.851 5.6-9.576 5.6-1.643 0-3.136-.747-4.48-2.24-1.307-1.493-1.96-3.043-1.96-4.648 0-2.315.616-5.059 1.848-8.232a28.783 28.783 0 015.432-8.736c2.352-2.613 4.853-3.92 7.504-3.92 2.65 0 4.498 1.587 5.544 4.76 1.904-7.915 2.949-14.168 3.136-18.76 0-1.12.41-1.68 1.232-1.68zm-6.16 27.496c0-2.016-.355-3.715-1.064-5.096-.672-1.381-1.494-2.072-2.464-2.072-1.606 0-3.248.989-4.928 2.968-1.68 1.979-3.024 4.256-4.032 6.832-.971 2.539-1.456 4.741-1.456 6.608 0 .672.242 1.213.728 1.624.485.411 1.064.616 1.736.616 1.456 0 3.416-1.045 5.88-3.136 2.501-2.091 4.312-4.555 5.432-7.392l.168-.672v-.28zm16.465 15.344c0 2.352-1.008 4.816-3.024 7.392-2.016 2.613-3.752 3.92-5.208 3.92-.747 0-1.12-.261-1.12-.784 0-.411.392-1.083 1.176-2.016 2.352-2.8 3.528-5.133 3.528-7 0-.597-.243-1.083-.728-1.456a13.133 13.133 0 00-1.4-1.12c-.485-.336-.728-.747-.728-1.232 0-.523.317-1.157.952-1.904.635-.784 1.307-1.176 2.016-1.176 1.195 0 2.24.56 3.136 1.68.933 1.083 1.4 2.315 1.4 3.696zm47.819-42.84c.597 0 1.325.56 2.184 1.68.896 1.083 1.344 2.109 1.344 3.08 0 .971-.467 3.733-1.4 8.288a323.021 323.021 0 01-3.248 14.056c-2.688 10.901-4.462 16.352-5.32 16.352-.523 0-1.102-.317-1.736-.952-.598-.672-.896-1.251-.896-1.736 0-.485.13-1.456.392-2.912-3.659 3.733-6.851 5.6-9.576 5.6-1.643 0-3.136-.747-4.48-2.24-1.307-1.493-1.96-3.043-1.96-4.648 0-2.315.616-5.059 1.848-8.232a28.783 28.783 0 015.432-8.736c2.352-2.613 4.853-3.92 7.504-3.92 2.65 0 4.498 1.587 5.544 4.76 1.904-7.915 2.949-14.168 3.136-18.76 0-1.12.41-1.68 1.232-1.68zm-6.16 27.496c0-2.016-.355-3.715-1.064-5.096-.672-1.381-1.494-2.072-2.464-2.072-1.606 0-3.248.989-4.928 2.968-1.68 1.979-3.024 4.256-4.032 6.832-.971 2.539-1.456 4.741-1.456 6.608 0 .672.242 1.213.728 1.624.485.411 1.064.616 1.736.616 1.456 0 3.416-1.045 5.88-3.136 2.501-2.091 4.312-4.555 5.432-7.392l.168-.672v-.28zm30.801-2.52c0 1.979-1.083 3.603-3.248 4.872-2.128 1.232-4.555 1.848-7.28 1.848-2.688 0-5.133-.299-7.336-.896-.523 1.643-.784 3.117-.784 4.424 0 1.269.392 2.259 1.176 2.968.821.709 2.147 1.064 3.976 1.064 1.867 0 3.771-.317 5.712-.952 1.979-.672 3.061-1.008 3.248-1.008.971 0 1.456.373 1.456 1.12 0 1.008-1.139 2.109-3.416 3.304-2.277 1.157-4.499 1.736-6.664 1.736-2.912 0-5.283-.859-7.112-2.576-1.829-1.755-2.744-3.957-2.744-6.608s.709-5.413 2.128-8.288c1.419-2.912 3.248-5.357 5.488-7.336s4.461-2.968 6.664-2.968c2.203 0 4.2 1.045 5.992 3.136 1.829 2.091 2.744 4.144 2.744 6.16zm-8.456-4.872c-1.381 0-2.819.728-4.312 2.184-1.493 1.419-2.763 3.192-3.808 5.32 1.493.336 3.192.504 5.096.504s3.565-.299 4.984-.896c1.419-.635 2.128-1.456 2.128-2.464s-.467-2.035-1.4-3.08c-.896-1.045-1.792-1.568-2.688-1.568zm25.659-4.424c1.269 0 2.464.709 3.584 2.128 1.12 1.381 1.68 2.595 1.68 3.64 0 .635-.299.952-.896.952-.411 0-1.045-.317-1.904-.952-.859-.672-1.736-1.008-2.632-1.008-.896 0-2.315.523-4.256 1.568-1.904 1.045-2.856 2.147-2.856 3.304 0 .859 1.717 2.333 5.152 4.424 1.307.821 2.483 1.885 3.528 3.192 1.083 1.269 1.624 2.651 1.624 4.144 0 1.456-1.027 2.893-3.08 4.312-2.016 1.381-4.387 2.072-7.112 2.072-2.688 0-5.077-.653-7.168-1.96-2.053-1.307-3.08-2.539-3.08-3.696 0-.485.112-.859.336-1.12.261-.299.579-.448.952-.448s.896.243 1.568.728c2.016 1.456 4.107 2.184 6.272 2.184 2.203 0 3.789-.243 4.76-.728.971-.523 1.456-1.195 1.456-2.016 0-.859-.541-1.755-1.624-2.688a20.828 20.828 0 00-3.584-2.576 17.62 17.62 0 01-3.528-2.744c-1.083-1.083-1.624-2.184-1.624-3.304 0-1.979 1.549-4.032 4.648-6.16 3.136-2.165 5.731-3.248 7.784-3.248zm13.316-7.952c0-.747.298-1.456.896-2.128.597-.672 1.194-1.008 1.792-1.008.634 0 1.381.765 2.24 2.296.858 1.493 1.288 2.744 1.288 3.752 0 .373-.168.709-.504 1.008-.336.299-.691.448-1.064.448-.896 0-1.904-.541-3.024-1.624-1.083-1.083-1.624-1.997-1.624-2.744zm-.28 7.952c.709 0 1.381.429 2.016 1.288.634.859.952 1.699.952 2.52s-.542 3.285-1.624 7.392c-1.083 4.069-2.446 8.643-4.088 13.72-.635 1.867-1.438 2.8-2.408 2.8-.523 0-.971-.205-1.344-.616-.374-.448-.56-.933-.56-1.456 0-.56.13-1.419.392-2.576a271.12 271.12 0 011.232-4.704c.56-1.979.989-3.584 1.288-4.816a85.583 85.583 0 001.008-4.144 301.7 301.7 0 00.784-3.752c.224-.971.466-1.941.728-2.912.522-1.829 1.064-2.744 1.624-2.744zm26.952 12.656c0 1.493-.654 3.192-1.96 5.096-1.008 2.277-2.091 5.563-3.248 9.856-1.158 4.256-2.128 7.299-2.912 9.128-1.568 3.808-3.976 5.712-7.224 5.712-2.651 0-4.891-.728-6.72-2.184-1.792-1.419-2.688-2.837-2.688-4.256 0-.597.186-1.195.56-1.792.336-.597.69-.896 1.064-.896.41 0 .858.28 1.344.84.485.56.933 1.157 1.344 1.792.448.672 1.101 1.288 1.96 1.848.896.56 1.754.84 2.576.84.821 0 1.437-.131 1.848-.392.41-.224.802-.616 1.176-1.176.373-.523.69-1.064.952-1.624.261-.523.541-1.288.84-2.296.336-.971.597-1.811.784-2.52.186-.709.448-1.699.784-2.968.336-1.307.616-2.352.84-3.136-2.912 2.165-5.283 3.248-7.112 3.248-1.83 0-3.416-.728-4.76-2.184-1.344-1.493-2.016-3.211-2.016-5.152 0-1.979.728-4.592 2.184-7.84a31.087 31.087 0 015.992-8.736c2.501-2.576 4.946-3.864 7.336-3.864 1.53 0 2.818.579 3.864 1.736 1.717 1.904 2.576 4.611 2.576 8.12 0 .448-.019.765-.056.952.448.635.672 1.251.672 1.848zm-18.032 8.344c0 .635.205 1.157.616 1.568.41.373.933.56 1.568.56 1.866 0 4.069-1.101 6.608-3.304 2.538-2.24 4.33-4.835 5.376-7.784-.15-.485-.28-1.232-.392-2.24a34.156 34.156 0 00-.336-2.408c-.112-.597-.355-1.195-.728-1.792-.374-.635-.859-.952-1.456-.952-1.456 0-3.099 1.045-4.928 3.136a29.23 29.23 0 00-4.536 7c-1.195 2.576-1.792 4.648-1.792 6.216zm26.242-2.968c3.584-6.085 6.496-10.603 8.736-13.552 2.277-2.987 4.125-4.48 5.544-4.48 1.456 0 2.818.765 4.088 2.296 1.306 1.531 1.96 3.155 1.96 4.872 0 2.688-.616 5.973-1.848 9.856-2.24 7.168-4.256 10.752-6.048 10.752-.822 0-1.232-.56-1.232-1.68 0-.784.392-2.371 1.176-4.76a170.834 170.834 0 002.24-7.112c.709-2.352 1.064-4.107 1.064-5.264 0-1.195-.187-2.072-.56-2.632-.336-.56-.691-.84-1.064-.84-.336 0-.691.112-1.064.336-.374.224-.803.597-1.288 1.12a46.744 46.744 0 00-1.288 1.568c-.411.485-.934 1.195-1.568 2.128-.598.933-1.102 1.736-1.512 2.408-.411.635-1.008 1.568-1.792 2.8a527.616 527.616 0 01-1.792 2.8 167.7 167.7 0 00-1.624 2.576 68.3 68.3 0 01-1.624 2.52 58.525 58.525 0 01-1.288 1.96c-.934 1.381-1.68 2.072-2.24 2.072-.523 0-1.139-.411-1.848-1.232-.71-.859-1.064-1.605-1.064-2.24 0-.187.13-.691.392-1.512.709-2.165 1.493-4.835 2.352-8.008.858-3.211 1.325-6.851 1.4-10.92.112-2.725.504-4.088 1.176-4.088.821 0 1.642.429 2.464 1.288.821.859 1.232 1.811 1.232 2.856 0 1.008-.318 2.987-.952 5.936a76.809 76.809 0 01-2.128 8.176z" fill="#78D369"/><path d="M493 232h173v92c0 22.091-17.909 40-40 40H493V232z" fill="#6FB649"/><path d="M493 152h173v80H493v-80z" fill="#85D858"/><path fill="#9AF06C" d="M493 99h173v53H493z"/><path d="M493 88c0-22.091 17.909-40 40-40h133v51H493V88z" fill="#A5FF75"/><path d="M523 108h179.826a25 25 0 0120.463 10.638l27.876 39.719a25.001 25.001 0 01.326 28.249l-28.244 42.281A25 25 0 01702.458 240H548c-13.807 0-25-11.193-25-25V108z" fill="#B4FF8C"/><path d="M547.451 155.449c-.232 0-.541-.232-.928-.696-.367-.464-.551-.889-.551-1.276s.57-3.084 1.711-8.091c1.16-5.027 1.75-8.139 1.769-9.338 0-.329.039-.551.116-.667.097-.135.28-.203.551-.203.29 0 .657.3 1.102.899.464.599.696 1.247.696 1.943 0 .677-.696 3.847-2.088 9.512-.135.522-.319 1.276-.551 2.262-.232.967-.416 1.711-.551 2.233-.135.522-.28 1.092-.435 1.711-.329 1.141-.609 1.711-.841 1.711zm9.674-2.784c0 .367.212.551.638.551.734 0 1.624-.203 2.668-.609 1.063-.425 1.653-.638 1.769-.638.348 0 .522.184.522.551 0 .561-.58 1.208-1.74 1.943-1.141.735-2.185 1.102-3.132 1.102-.928 0-1.702-.251-2.32-.754-.619-.522-.928-1.054-.928-1.595 0-.541.116-1.228.348-2.059.232-.851.56-1.962.986-3.335a97.53 97.53 0 001.044-3.451c-.909.213-1.518.319-1.827.319-.31 0-.619-.155-.928-.464-.29-.329-.435-.638-.435-.928 0-.464 1.256-.909 3.77-1.334.348-1.605.522-3.026.522-4.263 0-.58.193-.87.58-.87.328 0 .734.213 1.218.638.483.406.725.87.725 1.392 0 .522-.165 1.44-.493 2.755 1.102-.097 1.981-.145 2.639-.145 1.16 0 1.74.251 1.74.754 0 .29-.319.532-.957.725-.619.193-1.934.493-3.944.899a126.629 126.629 0 01-1.537 5.249c-.619 1.953-.928 3.142-.928 3.567zm13.766-18.241c0 1.218-.56 2.446-1.682 3.683-1.121 1.237-2.039 1.856-2.755 1.856-.522 0-.783-.213-.783-.638 0-.232.213-.561.638-.986.445-.425.89-.918 1.334-1.479.445-.561.667-1.083.667-1.566 0-.483-.087-.841-.261-1.073-.174-.232-.357-.396-.551-.493-.56-.232-.841-.532-.841-.899s.145-.677.435-.928a1.58 1.58 0 011.073-.406c.754 0 1.392.271 1.914.812.542.522.812 1.228.812 2.117zm10.792 6.757c.658 0 1.276.367 1.856 1.102.58.715.87 1.344.87 1.885 0 .329-.154.493-.464.493-.212 0-.541-.164-.986-.493-.444-.348-.899-.522-1.363-.522-.464 0-1.198.271-2.204.812-.986.541-1.479 1.112-1.479 1.711 0 .445.89 1.208 2.668 2.291a7.325 7.325 0 011.827 1.653c.561.657.841 1.373.841 2.146 0 .754-.531 1.498-1.595 2.233-1.044.715-2.271 1.073-3.683 1.073-1.392 0-2.629-.338-3.712-1.015-1.063-.677-1.595-1.315-1.595-1.914 0-.251.058-.445.174-.58a.632.632 0 01.493-.232c.194 0 .464.126.812.377 1.044.754 2.127 1.131 3.248 1.131 1.141 0 1.963-.126 2.465-.377.503-.271.754-.619.754-1.044 0-.445-.28-.909-.841-1.392a10.747 10.747 0 00-1.856-1.334 9.133 9.133 0 01-1.827-1.421c-.56-.561-.841-1.131-.841-1.711 0-1.025.803-2.088 2.407-3.19 1.624-1.121 2.968-1.682 4.031-1.682zm34.457 0c.58 0 1.092.406 1.537 1.218.464.793.696 1.701.696 2.726 0 1.005-.184 2.32-.551 3.944-.348 1.624-.822 3.113-1.421 4.466-.6 1.353-1.189 2.03-1.769 2.03-.406 0-.609-.261-.609-.783 0-.541.328-1.846.986-3.915.676-2.088 1.015-3.741 1.015-4.959 0-1.237-.194-1.856-.58-1.856-.484 0-1.044.425-1.682 1.276a40.812 40.812 0 00-2.001 3.074l-1.16 1.943a4.889 4.889 0 00-.232.348 4.71 4.71 0 01-.29.493 74.93 74.93 0 00-.812 1.566c-.426.87-.803 1.556-1.131 2.059-.329.483-.619.725-.87.725-.232 0-.493-.155-.783-.464-.29-.309-.435-.599-.435-.87s.174-.831.522-1.682c1.005-2.513 1.508-4.853 1.508-7.018 0-.406-.087-.744-.261-1.015-.174-.29-.368-.435-.58-.435-.213 0-.435.097-.667.29-.232.174-.522.503-.87.986a21.06 21.06 0 00-.928 1.334c-.271.425-.687 1.092-1.247 2.001a86.088 86.088 0 01-1.247 2.001c-.271.425-.59.928-.957 1.508-.368.561-.658.996-.87 1.305-.194.309-.416.648-.667 1.015-.522.715-.909 1.073-1.16 1.073-.232 0-.542-.213-.928-.638-.387-.445-.58-.773-.58-.986 0-.232.038-.512.116-.841.077-.329.154-.648.232-.957.096-.309.232-.764.406-1.363.193-.619.406-1.334.638-2.146.251-.831.435-1.962.551-3.393.135-1.45.232-2.504.29-3.161.058-.677.222-1.015.493-1.015.425 0 .841.222 1.247.667.425.445.638.889.638 1.334 0 1.701-.638 4.505-1.914 8.41 2.165-4.06 3.528-6.467 4.089-7.221a30.084 30.084 0 011.45-1.827c.754-.831 1.517-1.247 2.291-1.247.464 0 1.015.406 1.653 1.218.657.793.986 1.595.986 2.407s-.116 1.817-.348 3.016c2.281-4.427 4.35-6.641 6.206-6.641zm15.657 0c.309 0 .638.232.986.696.367.445.551.947.551 1.508 0 .387-.397 1.701-1.189 3.944-.793 2.243-1.334 3.77-1.624 4.582-.271.793-.648 1.856-1.131 3.19l-1.363 3.857c-.967 2.765-2.417 4.147-4.35 4.147-1.102 0-2.156-.338-3.161-1.015-1.006-.657-1.508-1.344-1.508-2.059 0-.271.125-.57.377-.899.232-.329.435-.493.609-.493s.454.213.841.638c1.121 1.276 2.078 1.914 2.871 1.914.599 0 1.14-.532 1.624-1.595a30.96 30.96 0 001.363-3.567c.444-1.315.686-2.04.725-2.175.058-.135.116-.309.174-.522.077-.213.145-.406.203-.58-1.373 1.875-2.726 2.813-4.06 2.813-.812 0-1.566-.377-2.262-1.131-.677-.754-1.015-1.643-1.015-2.668 0-1.025.251-2.407.754-4.147.502-1.74 1.092-3.248 1.769-4.524.676-1.276 1.227-1.914 1.653-1.914.348 0 .667.164.957.493.309.309.464.628.464.957 0 .329-.252 1.015-.754 2.059-1.566 3.209-2.349 5.703-2.349 7.482 0 .309.096.57.29.783a.95.95 0 00.696.29c.696 0 1.527-.619 2.494-1.856.966-1.237 1.856-2.707 2.668-4.408.676-1.431 1.382-3.258 2.117-5.481.077-.213.27-.319.58-.319zm17.084 13.543c-.29.599-.541.899-.754.899-.213 0-.474-.174-.783-.522-.309-.367-.464-.677-.464-.928s.106-.744.319-1.479c.928-3.113 1.605-5.645 2.03-7.598-.967.174-1.585.261-1.856.261-.271 0-.561-.145-.87-.435-.309-.29-.464-.59-.464-.899 0-.329.338-.59 1.015-.783.696-.193 1.605-.387 2.726-.58.077-.387.193-1.005.348-1.856.464-2.726 1.083-4.659 1.856-5.8.773-1.16 1.846-1.74 3.219-1.74 1.025 0 2.098.474 3.219 1.421 1.121.928 1.682 1.875 1.682 2.842 0 .947-.242 1.421-.725 1.421-.348 0-.764-.28-1.247-.841a30.29 30.29 0 00-1.479-1.711c-.503-.58-.967-.87-1.392-.87-.986 0-1.924 2.011-2.813 6.032l-.174.754c2.417-.309 4.244-.464 5.481-.464 1.257 0 1.885.474 1.885 1.421 0 .522-.435 2.165-1.305 4.93-.87 2.745-1.46 4.659-1.769 5.742-.309 1.063-.715 1.595-1.218 1.595-.29 0-.532-.126-.725-.377a1.628 1.628 0 01-.261-.899c0-.348.164-1.15.493-2.407.329-1.276.715-2.726 1.16-4.35.445-1.643.754-2.842.928-3.596-.851.039-2.6.29-5.249.754-1.334 5.568-2.272 8.922-2.813 10.063zm13.871-10.005l-.087-2.175c0-.909.213-1.363.638-1.363.368 0 .716.242 1.044.725.348.464.522 1.025.522 1.682 0 .638-.019 1.121-.058 1.45 1.682-2.552 3.277-3.828 4.785-3.828.948 0 1.421.232 1.421.696 0 .232-.106.445-.319.638-.212.193-.551.416-1.015.667-1.024.445-1.894 1.131-2.61 2.059a12.333 12.333 0 00-1.711 3.103 88.755 88.755 0 00-1.073 2.929c-.251.793-.444 1.411-.58 1.856-.135.445-.29.88-.464 1.305-.309.773-.667 1.16-1.073 1.16-.328 0-.599-.184-.812-.551-.193-.387-.29-.754-.29-1.102 0-.367.165-1.083.493-2.146.793-2.436 1.189-4.804 1.189-7.105zm16.155-3.538c.657 0 1.276.367 1.856 1.102.58.715.87 1.344.87 1.885 0 .329-.155.493-.464.493-.213 0-.541-.164-.986-.493-.445-.348-.899-.522-1.363-.522-.464 0-1.199.271-2.204.812-.986.541-1.479 1.112-1.479 1.711 0 .445.889 1.208 2.668 2.291a7.325 7.325 0 011.827 1.653c.561.657.841 1.373.841 2.146 0 .754-.532 1.498-1.595 2.233-1.044.715-2.272 1.073-3.683 1.073-1.392 0-2.629-.338-3.712-1.015-1.063-.677-1.595-1.315-1.595-1.914 0-.251.058-.445.174-.58a.63.63 0 01.493-.232c.193 0 .464.126.812.377 1.044.754 2.127 1.131 3.248 1.131 1.141 0 1.962-.126 2.465-.377.503-.271.754-.619.754-1.044 0-.445-.28-.909-.841-1.392a10.786 10.786 0 00-1.856-1.334 9.133 9.133 0 01-1.827-1.421c-.561-.561-.841-1.131-.841-1.711 0-1.025.802-2.088 2.407-3.19 1.624-1.121 2.968-1.682 4.031-1.682zm7.302 11.484c0 .367.212.551.638.551.734 0 1.624-.203 2.668-.609 1.063-.425 1.653-.638 1.769-.638.348 0 .522.184.522.551 0 .561-.58 1.208-1.74 1.943-1.141.735-2.185 1.102-3.132 1.102-.928 0-1.702-.251-2.32-.754-.619-.522-.928-1.054-.928-1.595 0-.541.116-1.228.348-2.059.232-.851.56-1.962.986-3.335a97.53 97.53 0 001.044-3.451c-.909.213-1.518.319-1.827.319-.31 0-.619-.155-.928-.464-.29-.329-.435-.638-.435-.928 0-.464 1.256-.909 3.77-1.334.348-1.605.522-3.026.522-4.263 0-.58.193-.87.58-.87.328 0 .734.213 1.218.638.483.406.725.87.725 1.392 0 .522-.165 1.44-.493 2.755 1.102-.097 1.981-.145 2.639-.145 1.16 0 1.74.251 1.74.754 0 .29-.319.532-.957.725-.619.193-1.934.493-3.944.899a126.629 126.629 0 01-1.537 5.249c-.619 1.953-.928 3.142-.928 3.567zm-61.989 24.429c.831 0 1.547.532 2.146 1.595.619 1.063.928 2.165.928 3.306 0 1.121-.329 2.252-.986 3.393a13.02 13.02 0 01-2.436 3.016 14.314 14.314 0 01-3.219 2.233c-1.16.58-2.233.87-3.219.87-.387 0-.754-.048-1.102-.145-.077.329-.213.918-.406 1.769-.193.851-.358 1.556-.493 2.117-.135.561-.29 1.16-.464 1.798-.348 1.315-.657 1.972-.928 1.972s-.551-.213-.841-.638c-.309-.406-.464-.773-.464-1.102 0-.329.309-1.74.928-4.234 1.856-7.521 2.784-12.586 2.784-15.196 0-.58.213-.87.638-.87.348 0 .764.261 1.247.783.503.503.754 1.063.754 1.682 0 .309-.039.648-.116 1.015 1.721-2.243 3.47-3.364 5.249-3.364zm-7.076 12.151c1.025 0 2.127-.348 3.306-1.044a9.851 9.851 0 003.045-2.755c.851-1.16 1.276-2.31 1.276-3.451 0-1.605-.377-2.407-1.131-2.407s-1.779.648-3.074 1.943c-1.276 1.295-2.291 2.977-3.045 5.046l-.667 2.668h.29zm20.2-7.134c0-.657-.107-1.276-.319-1.856-.213-.599-.522-1.034-.928-1.305-1.334.367-2.485 1.402-3.451 3.103-.948 1.682-1.421 3.267-1.421 4.756 0 1.489.367 2.417 1.102 2.784 1.392-.271 2.571-1.218 3.538-2.842.986-1.643 1.479-3.19 1.479-4.64zm-7.627.261c.676-1.508 1.556-2.745 2.639-3.712 1.102-.986 2.223-1.479 3.364-1.479 1.16 0 2.126.493 2.9 1.479.773.967 1.16 2.156 1.16 3.567 0 1.392-.339 2.823-1.015 4.292-.677 1.45-1.615 2.658-2.813 3.625-1.18.947-2.436 1.421-3.77 1.421-.986 0-1.808-.454-2.465-1.363-.658-.909-.986-2.059-.986-3.451 0-1.411.328-2.871.986-4.379zm13.749-1.653l-.087-2.175c0-.909.213-1.363.638-1.363.367 0 .715.242 1.044.725.348.464.522 1.025.522 1.682 0 .638-.019 1.121-.058 1.45 1.682-2.552 3.277-3.828 4.785-3.828.947 0 1.421.232 1.421.696 0 .232-.106.445-.319.638-.213.193-.551.416-1.015.667-1.025.445-1.895 1.131-2.61 2.059a12.333 12.333 0 00-1.711 3.103 86.51 86.51 0 00-1.073 2.929c-.251.793-.445 1.411-.58 1.856-.135.445-.29.88-.464 1.305-.309.773-.667 1.16-1.073 1.16-.329 0-.599-.184-.812-.551-.193-.387-.29-.754-.29-1.102 0-.367.164-1.083.493-2.146.793-2.436 1.189-4.804 1.189-7.105zm11.109 7.946c0 .367.212.551.638.551.734 0 1.624-.203 2.668-.609 1.063-.425 1.653-.638 1.769-.638.348 0 .522.184.522.551 0 .561-.58 1.208-1.74 1.943-1.141.735-2.185 1.102-3.132 1.102-.928 0-1.702-.251-2.32-.754-.619-.522-.928-1.054-.928-1.595 0-.541.116-1.228.348-2.059.232-.851.56-1.962.986-3.335a97.53 97.53 0 001.044-3.451c-.909.213-1.518.319-1.827.319-.31 0-.619-.155-.928-.464-.29-.329-.435-.638-.435-.928 0-.464 1.256-.909 3.77-1.334.348-1.605.522-3.026.522-4.263 0-.58.193-.87.58-.87.328 0 .734.213 1.218.638.483.406.725.87.725 1.392 0 .522-.165 1.44-.493 2.755 1.102-.097 1.981-.145 2.639-.145 1.16 0 1.74.251 1.74.754 0 .29-.319.532-.957.725-.619.193-1.934.493-3.944.899a126.629 126.629 0 01-1.537 5.249c-.619 1.953-.928 3.142-.928 3.567zm10.055 2.958c-.252 0-.522-.184-.812-.551-.29-.367-.435-.667-.435-.899 0-.232.096-.686.29-1.363.966-3.48 1.624-5.964 1.972-7.453-.832.193-1.402.29-1.711.29-.31 0-.619-.135-.928-.406-.31-.271-.464-.57-.464-.899 0-.329.435-.619 1.305-.87 1.121-.271 1.894-.445 2.32-.522.193-.928.338-1.643.435-2.146.464-2.668 1.092-4.592 1.885-5.771.792-1.179 1.865-1.769 3.219-1.769.966 0 1.759.387 2.378 1.16.618.754.928 1.653.928 2.697 0 1.025-.271 1.537-.812 1.537-.464 0-.841-.522-1.131-1.566a3.192 3.192 0 00-.493-1.073c-.232-.329-.513-.493-.841-.493-.329 0-.629.155-.899.464-.271.29-.513.715-.725 1.276-.561 1.566-.948 2.997-1.16 4.292l-.232 1.015a15.737 15.737 0 012.117-.145c.715 0 1.227.077 1.537.232.328.155.493.348.493.58 0 .367-.319.648-.957.841-.638.193-1.885.445-3.741.754-1.373 5.568-2.311 8.884-2.813 9.947-.271.561-.513.841-.725.841zm17.573-9.512c0-.657-.106-1.276-.319-1.856-.213-.599-.522-1.034-.928-1.305-1.334.367-2.484 1.402-3.451 3.103-.947 1.682-1.421 3.267-1.421 4.756 0 1.489.367 2.417 1.102 2.784 1.392-.271 2.571-1.218 3.538-2.842.986-1.643 1.479-3.19 1.479-4.64zm-7.627.261c.677-1.508 1.556-2.745 2.639-3.712 1.102-.986 2.223-1.479 3.364-1.479 1.16 0 2.127.493 2.9 1.479.773.967 1.16 2.156 1.16 3.567 0 1.392-.338 2.823-1.015 4.292-.677 1.45-1.614 2.658-2.813 3.625-1.179.947-2.436 1.421-3.77 1.421-.986 0-1.808-.454-2.465-1.363-.657-.909-.986-2.059-.986-3.451 0-1.411.329-2.871.986-4.379zm17.723-10.875c0 3.635-.754 8.352-2.262 14.152-.967 3.944-1.644 5.916-2.03 5.916-.271 0-.59-.213-.957-.638-.348-.425-.522-.754-.522-.986 0-.232.28-1.431.841-3.596.56-2.165 1.121-4.824 1.682-7.975.56-3.171.841-6.022.841-8.555 0-.271.038-.464.116-.58.077-.116.241-.174.493-.174.251 0 .609.28 1.073.841.483.541.725 1.073.725 1.595zm5.107 1.566c0-.387.155-.754.464-1.102.309-.348.619-.522.928-.522.329 0 .715.396 1.16 1.189.445.773.667 1.421.667 1.943 0 .193-.087.367-.261.522-.174.155-.358.232-.551.232-.464 0-.986-.28-1.566-.841-.561-.561-.841-1.034-.841-1.421zm-.145 4.118c.367 0 .715.222 1.044.667.329.445.493.88.493 1.305 0 .425-.28 1.701-.841 3.828a141.7 141.7 0 01-2.117 7.105c-.329.967-.744 1.45-1.247 1.45a.906.906 0 01-.696-.319 1.156 1.156 0 01-.29-.754c0-.29.068-.735.203-1.334.155-.619.367-1.431.638-2.436.29-1.025.512-1.856.667-2.494.174-.638.348-1.353.522-2.146.174-.812.309-1.46.406-1.943.116-.503.242-1.005.377-1.508.271-.947.551-1.421.841-1.421zm12.101 4.93c0-.657-.106-1.276-.319-1.856-.213-.599-.522-1.034-.928-1.305-1.334.367-2.484 1.402-3.451 3.103-.947 1.682-1.421 3.267-1.421 4.756 0 1.489.367 2.417 1.102 2.784 1.392-.271 2.571-1.218 3.538-2.842.986-1.643 1.479-3.19 1.479-4.64zm-7.627.261c.677-1.508 1.556-2.745 2.639-3.712 1.102-.986 2.223-1.479 3.364-1.479 1.16 0 2.127.493 2.9 1.479.773.967 1.16 2.156 1.16 3.567 0 1.392-.338 2.823-1.015 4.292-.677 1.45-1.614 2.658-2.813 3.625-1.179.947-2.436 1.421-3.77 1.421-.986 0-1.808-.454-2.465-1.363-.657-.909-.986-2.059-.986-3.451 0-1.411.329-2.871.986-4.379zm13.576 6.09c.328-.406.657-.609.986-.609.328 0 .725.474 1.189 1.421.464.928.696 1.624.696 2.088 0 .135-.097.29-.29.464-.194.174-.377.261-.551.261-.484 0-1.025-.3-1.624-.899-.6-.619-.899-1.121-.899-1.508 0-.406.164-.812.493-1.218zm3.741-19.952c.367 0 .87.232 1.508.696.638.464.957.831.957 1.102 0 1.643-.426 4.534-1.276 8.671-.832 4.137-1.499 6.206-2.001 6.206-.31 0-.6-.155-.87-.464-.271-.329-.406-.667-.406-1.015-.02-.116.096-.812.348-2.088.27-1.276.551-3.064.841-5.365.29-2.32.435-4.65.435-6.989 0-.503.154-.754.464-.754z" fill="#6FB649"/><g filter="url(#filter1_d_13_2)"><path d="M432 201c0-16.016 12.984-29 29-29h124.342a29 29 0 0121.682 9.741l30.581 34.429c10.293 11.588 9.654 29.222-1.45 40.035l-29.339 28.571A29 29 0 01586.584 293H461c-16.016 0-29-12.984-29-29v-63z" fill="#78D369"/></g><path d="M448.84 222.456c-.256 0-.608-.277-1.056-.832-.448-.576-.672-1.12-.672-1.632 0-.512.469-2.603 1.408-6.272a1.797 1.797 0 01-.736-.544 1.593 1.593 0 01-.288-.928c0-.277.555-.587 1.664-.928 1.429-5.589 2.144-9.056 2.144-10.4 0-.363.043-.608.128-.736.107-.149.299-.224.576-.224.299 0 .683.331 1.152.992.491.661.736 1.408.736 2.24 0 .811-.523 3.275-1.568 7.392a60.302 60.302 0 018.288-1.12c1.088-4.437 1.632-7.285 1.632-8.544 0-.64.213-.96.64-.96.363 0 .789.331 1.28.992s.736 1.355.736 2.08c0 .704-.48 2.869-1.44 6.496.981.149 1.472.448 1.472.896 0 .427-.661.779-1.984 1.056a650.634 650.634 0 00-1.408 5.248c-.235.96-.427 1.728-.576 2.304a50.582 50.582 0 01-.48 1.728c-.299 1.131-.565 1.696-.8 1.696-.299 0-.651-.245-1.056-.736-.384-.512-.576-1.035-.576-1.568 0-.533.64-3.275 1.92-8.224-3.115.427-5.92.917-8.416 1.472a789.374 789.374 0 00-.864 3.232 318.288 318.288 0 01-.608 2.4 50.582 50.582 0 01-.48 1.728c-.299 1.131-.555 1.696-.768 1.696zm31.358-10.496c0 1.131-.619 2.059-1.856 2.784-1.216.704-2.603 1.056-4.16 1.056-1.536 0-2.934-.171-4.192-.512-.299.939-.448 1.781-.448 2.528 0 .725.224 1.291.672 1.696.469.405 1.226.608 2.272.608 1.066 0 2.154-.181 3.264-.544 1.13-.384 1.749-.576 1.856-.576.554 0 .832.213.832.64 0 .576-.651 1.205-1.952 1.888-1.302.661-2.571.992-3.808.992-1.664 0-3.019-.491-4.064-1.472-1.046-1.003-1.568-2.261-1.568-3.776 0-1.515.405-3.093 1.216-4.736.81-1.664 1.856-3.061 3.136-4.192 1.28-1.131 2.549-1.696 3.808-1.696 1.258 0 2.4.597 3.424 1.792 1.045 1.195 1.568 2.368 1.568 3.52zm-4.832-2.784c-.79 0-1.611.416-2.464 1.248-.854.811-1.579 1.824-2.176 3.04.853.192 1.824.288 2.912.288 1.088 0 2.037-.171 2.848-.512.81-.363 1.216-.832 1.216-1.408s-.267-1.163-.8-1.76c-.512-.597-1.024-.896-1.536-.896zm12.774-8.8c0 4.011-.832 9.216-2.496 15.616-1.067 4.352-1.814 6.528-2.24 6.528-.299 0-.651-.235-1.056-.704-.384-.469-.576-.832-.576-1.088 0-.256.309-1.579.928-3.968.618-2.389 1.237-5.323 1.856-8.8.618-3.499.928-6.645.928-9.44 0-.299.042-.512.128-.64.085-.128.266-.192.544-.192.277 0 .672.309 1.184.928.533.597.8 1.184.8 1.76zm11.204 11.712a5.92 5.92 0 00-.352-2.048c-.235-.661-.576-1.141-1.024-1.44-1.472.405-2.742 1.547-3.808 3.424-1.046 1.856-1.568 3.605-1.568 5.248 0 1.643.405 2.667 1.216 3.072 1.536-.299 2.837-1.344 3.904-3.136 1.088-1.813 1.632-3.52 1.632-5.12zm-8.416.288c.746-1.664 1.717-3.029 2.912-4.096 1.216-1.088 2.453-1.632 3.712-1.632 1.28 0 2.346.544 3.2 1.632.853 1.067 1.28 2.379 1.28 3.936 0 1.536-.374 3.115-1.12 4.736-.747 1.6-1.782 2.933-3.104 4-1.302 1.045-2.688 1.568-4.16 1.568-1.088 0-1.995-.501-2.72-1.504-.726-1.003-1.088-2.272-1.088-3.808 0-1.557.362-3.168 1.088-4.832zm22.916-.288a5.92 5.92 0 00-.352-2.048c-.235-.661-.576-1.141-1.024-1.44-1.472.405-2.742 1.547-3.808 3.424-1.046 1.856-1.568 3.605-1.568 5.248 0 1.643.405 2.667 1.216 3.072 1.536-.299 2.837-1.344 3.904-3.136 1.088-1.813 1.632-3.52 1.632-5.12zm-8.416.288c.746-1.664 1.717-3.029 2.912-4.096 1.216-1.088 2.453-1.632 3.712-1.632 1.28 0 2.346.544 3.2 1.632.853 1.067 1.28 2.379 1.28 3.936 0 1.536-.374 3.115-1.12 4.736-.747 1.6-1.782 2.933-3.104 4-1.302 1.045-2.688 1.568-4.16 1.568-1.088 0-1.995-.501-2.72-1.504-.726-1.003-1.088-2.272-1.088-3.808 0-1.557.362-3.168 1.088-4.832zm22.916-.288a5.92 5.92 0 00-.352-2.048c-.235-.661-.576-1.141-1.024-1.44-1.472.405-2.742 1.547-3.808 3.424-1.046 1.856-1.568 3.605-1.568 5.248 0 1.643.405 2.667 1.216 3.072 1.536-.299 2.837-1.344 3.904-3.136 1.088-1.813 1.632-3.52 1.632-5.12zm-8.416.288c.746-1.664 1.717-3.029 2.912-4.096 1.216-1.088 2.453-1.632 3.712-1.632 1.28 0 2.346.544 3.2 1.632.853 1.067 1.28 2.379 1.28 3.936 0 1.536-.374 3.115-1.12 4.736-.747 1.6-1.782 2.933-3.104 4-1.302 1.045-2.688 1.568-4.16 1.568-1.088 0-1.995-.501-2.72-1.504-.726-1.003-1.088-2.272-1.088-3.808 0-1.557.362-3.168 1.088-4.832zm14.98 6.72c.362-.448.725-.672 1.088-.672.362 0 .8.523 1.312 1.568.512 1.024.768 1.792.768 2.304 0 .149-.107.32-.32.512-.214.192-.416.288-.608.288-.534 0-1.131-.331-1.792-.992-.662-.683-.992-1.237-.992-1.664 0-.448.181-.896.544-1.344zm4.128-22.016c.405 0 .96.256 1.664.768s1.056.917 1.056 1.216c0 1.813-.47 5.003-1.408 9.568-.918 4.565-1.654 6.848-2.208 6.848-.342 0-.662-.171-.96-.512-.299-.363-.448-.736-.448-1.12-.022-.128.106-.896.384-2.304.298-1.408.608-3.381.928-5.92.32-2.56.48-5.131.48-7.712 0-.555.17-.832.512-.832zm-88.486 42.28c0-.34.04-.57.12-.69.1-.14.27-.21.51-.21.26 0 .7.27 1.32.81.62.54.95 1.02.99 1.44.08.72.46 2 1.14 3.84a75.13 75.13 0 002.34 5.55c1.12-1.32 2.53-3.07 4.23-5.25 1.7-2.2 2.96-3.76 3.78-4.68.82-.92 1.41-1.38 1.77-1.38.36 0 .74.2 1.14.6.4.4.6.78.6 1.14 0 .36-.04.77-.12 1.23-.08.46-.22 1.07-.42 1.83-.18.74-.35 1.39-.51 1.95-.14.54-.38 1.39-.72 2.55-.34 1.16-.6 2.09-.78 2.79-.18.68-.39 1.52-.63 2.52-.24.98-.44 1.79-.6 2.43-.14.62-.29 1.23-.45 1.83-.3 1.16-.59 1.74-.87 1.74-.26 0-.52-.24-.78-.72s-.39-1.12-.39-1.92c0-.82.34-2.68 1.02-5.58.7-2.9 1.45-5.44 2.25-7.62-3.68 4.6-5.95 7.35-6.81 8.25-.84.9-1.54 1.35-2.1 1.35-.54 0-1.05-.31-1.53-.93-.72-1.04-1.69-3.5-2.91-7.38-.34 2.1-.72 3.9-1.14 5.4-.4 1.48-.67 2.47-.81 2.97-.12.48-.23.88-.33 1.2-.08.32-.18.7-.3 1.14-.12.42-.23.77-.33 1.05-.08.28-.17.59-.27.93-.1.32-.19.58-.27.78-.06.2-.13.39-.21.57-.16.34-.28.51-.36.51-.24 0-.54-.26-.9-.78s-.54-1.02-.54-1.5.64-3.24 1.92-8.28c1.3-5.04 1.95-8.2 1.95-9.48zm30.782 5.31c.32 0 .66.24 1.02.72.38.46.57.98.57 1.56 0 .4-.41 1.76-1.23 4.08-.82 2.32-1.38 3.9-1.68 4.74-.28.82-.67 1.92-1.17 3.3l-1.41 3.99c-1 2.86-2.5 4.29-4.5 4.29-1.14 0-2.23-.35-3.27-1.05-1.04-.68-1.56-1.39-1.56-2.13 0-.28.13-.59.39-.93.24-.34.45-.51.63-.51s.47.22.87.66c1.16 1.32 2.15 1.98 2.97 1.98.62 0 1.18-.55 1.68-1.65.5-1.08.97-2.31 1.41-3.69.46-1.36.71-2.11.75-2.25.06-.14.12-.32.18-.54.08-.22.15-.42.21-.6-1.42 1.94-2.82 2.91-4.2 2.91-.84 0-1.62-.39-2.34-1.17-.7-.78-1.05-1.7-1.05-2.76 0-1.06.26-2.49.78-4.29.52-1.8 1.13-3.36 1.83-4.68.7-1.32 1.27-1.98 1.71-1.98.36 0 .69.17.99.51.32.32.48.65.48.99 0 .34-.26 1.05-.78 2.13-1.62 3.32-2.43 5.9-2.43 7.74 0 .32.1.59.3.81.2.2.44.3.72.3.72 0 1.58-.64 2.58-1.92 1-1.28 1.92-2.8 2.76-4.56.7-1.48 1.43-3.37 2.19-5.67.08-.22.28-.33.6-.33zm17.313 9.66c1.92-3.26 3.48-5.68 4.68-7.26 1.22-1.6 2.21-2.4 2.97-2.4.78 0 1.51.41 2.19 1.23.7.82 1.05 1.69 1.05 2.61 0 1.44-.33 3.2-.99 5.28-1.2 3.84-2.28 5.76-3.24 5.76-.44 0-.66-.3-.66-.9 0-.42.21-1.27.63-2.55.44-1.3.84-2.57 1.2-3.81.38-1.26.57-2.2.57-2.82 0-.64-.1-1.11-.3-1.41-.18-.3-.37-.45-.57-.45-.18 0-.37.06-.57.18-.2.12-.43.32-.69.6-.24.28-.47.56-.69.84-.22.26-.5.64-.84 1.14-.32.5-.59.93-.81 1.29-.22.34-.54.84-.96 1.5-.42.66-.74 1.16-.96 1.5-.22.34-.51.8-.87 1.38-.36.58-.65 1.03-.87 1.35-.2.32-.43.67-.69 1.05-.5.74-.9 1.11-1.2 1.11-.28 0-.61-.22-.99-.66-.38-.46-.57-.86-.57-1.2 0-.1.07-.37.21-.81.38-1.16.8-2.59 1.26-4.29.46-1.72.71-3.67.75-5.85.06-1.46.27-2.19.63-2.19.44 0 .88.23 1.32.69.44.46.66.97.66 1.53 0 .54-.17 1.6-.51 3.18-.32 1.56-.7 3.02-1.14 4.38zm25.026-4.68c0 1.06-.58 1.93-1.74 2.61-1.14.66-2.44.99-3.9.99-1.44 0-2.75-.16-3.93-.48-.28.88-.42 1.67-.42 2.37 0 .68.21 1.21.63 1.59.44.38 1.15.57 2.13.57 1 0 2.02-.17 3.06-.51 1.06-.36 1.64-.54 1.74-.54.52 0 .78.2.78.6 0 .54-.61 1.13-1.83 1.77-1.22.62-2.41.93-3.57.93-1.56 0-2.83-.46-3.81-1.38-.98-.94-1.47-2.12-1.47-3.54s.38-2.9 1.14-4.44c.76-1.56 1.74-2.87 2.94-3.93s2.39-1.59 3.57-1.59c1.18 0 2.25.56 3.21 1.68.98 1.12 1.47 2.22 1.47 3.3zm-4.53-2.61c-.74 0-1.51.39-2.31 1.17-.8.76-1.48 1.71-2.04 2.85.8.18 1.71.27 2.73.27s1.91-.16 2.67-.48c.76-.34 1.14-.78 1.14-1.32s-.25-1.09-.75-1.65c-.48-.56-.96-.84-1.44-.84zm18.126.81l-.21 5.64c0 1.56.07 2.69.21 3.39.86-.9 1.6-1.95 2.22-3.15.64-1.22 1.11-2.35 1.41-3.39.32-1.04.59-2.01.81-2.91.24-.92.46-1.65.66-2.19s.43-.81.69-.81c.38 0 .72.16 1.02.48.3.3.45.65.45 1.05 0 1.02-.46 2.7-1.38 5.04-.78 2.16-1.8 4.14-3.06 5.94-1.26 1.78-2.24 2.67-2.94 2.67-.7 0-1.23-.39-1.59-1.17-.34-.78-.53-2.27-.57-4.47-.04-2.22-.01-4.14.09-5.76-1.38 3.76-2.6 6.6-3.66 8.52s-1.9 2.88-2.52 2.88c-.28 0-.58-.13-.9-.39-.3-.26-.54-.6-.72-1.02-.44-1.06-.82-3.08-1.14-6.06-.3-3-.45-5.14-.45-6.42 0-.82.25-1.23.75-1.23.44 0 .84.25 1.2.75.38.5.6 1 .66 1.5.06.48.11 1.84.15 4.08.06 2.22.25 4.2.57 5.94.82-1.42 1.64-3.2 2.46-5.34.84-2.14 1.52-3.82 2.04-5.04.54-1.22 1.03-1.83 1.47-1.83.66 0 1.2.31 1.62.93.44.6.66 1.39.66 2.37zm26.077-9.06c0 3.76-.78 8.64-2.34 14.64-1 4.08-1.7 6.12-2.1 6.12-.28 0-.61-.22-.99-.66-.36-.44-.54-.78-.54-1.02s.29-1.48.87-3.72c.58-2.24 1.16-4.99 1.74-8.25.58-3.28.87-6.23.87-8.85 0-.28.04-.48.12-.6.08-.12.25-.18.51-.18s.63.29 1.11.87c.5.56.75 1.11.75 1.65zm10.503 10.98c0-.68-.11-1.32-.33-1.92-.22-.62-.54-1.07-.96-1.35-1.38.38-2.57 1.45-3.57 3.21-.98 1.74-1.47 3.38-1.47 4.92s.38 2.5 1.14 2.88c1.44-.28 2.66-1.26 3.66-2.94 1.02-1.7 1.53-3.3 1.53-4.8zm-7.89.27c.7-1.56 1.61-2.84 2.73-3.84 1.14-1.02 2.3-1.53 3.48-1.53 1.2 0 2.2.51 3 1.53.8 1 1.2 2.23 1.2 3.69 0 1.44-.35 2.92-1.05 4.44-.7 1.5-1.67 2.75-2.91 3.75-1.22.98-2.52 1.47-3.9 1.47-1.02 0-1.87-.47-2.55-1.41-.68-.94-1.02-2.13-1.02-3.57 0-1.46.34-2.97 1.02-4.53zm24.304 1.41c0 .8-.35 1.71-1.05 2.73-.54 1.22-1.12 2.98-1.74 5.28-.62 2.28-1.14 3.91-1.56 4.89-.84 2.04-2.13 3.06-3.87 3.06-1.42 0-2.62-.39-3.6-1.17-.96-.76-1.44-1.52-1.44-2.28 0-.32.1-.64.3-.96.18-.32.37-.48.57-.48.22 0 .46.15.72.45.26.3.5.62.72.96.24.36.59.69 1.05.99.48.3.94.45 1.38.45.44 0 .77-.07.99-.21.22-.12.43-.33.63-.63.2-.28.37-.57.51-.87.14-.28.29-.69.45-1.23.18-.52.32-.97.42-1.35l.42-1.59c.18-.7.33-1.26.45-1.68-1.56 1.16-2.83 1.74-3.81 1.74s-1.83-.39-2.55-1.17c-.72-.8-1.08-1.72-1.08-2.76 0-1.06.39-2.46 1.17-4.2.8-1.74 1.87-3.3 3.21-4.68 1.34-1.38 2.65-2.07 3.93-2.07.82 0 1.51.31 2.07.93.92 1.02 1.38 2.47 1.38 4.35 0 .24-.01.41-.03.51.24.34.36.67.36.99zm-9.66 4.47c0 .34.11.62.33.84.22.2.5.3.84.3 1 0 2.18-.59 3.54-1.77 1.36-1.2 2.32-2.59 2.88-4.17-.08-.26-.15-.66-.21-1.2-.06-.54-.12-.97-.18-1.29a2.78 2.78 0 00-.39-.96c-.2-.34-.46-.51-.78-.51-.78 0-1.66.56-2.64 1.68-.98 1.12-1.79 2.37-2.43 3.75-.64 1.38-.96 2.49-.96 3.33zm21.078-6.15c0-.68-.11-1.32-.33-1.92-.22-.62-.54-1.07-.96-1.35-1.38.38-2.57 1.45-3.57 3.21-.98 1.74-1.47 3.38-1.47 4.92s.38 2.5 1.14 2.88c1.44-.28 2.66-1.26 3.66-2.94 1.02-1.7 1.53-3.3 1.53-4.8zm-7.89.27c.7-1.56 1.61-2.84 2.73-3.84 1.14-1.02 2.3-1.53 3.48-1.53 1.2 0 2.2.51 3 1.53.8 1 1.2 2.23 1.2 3.69 0 1.44-.35 2.92-1.05 4.44-.7 1.5-1.67 2.75-2.91 3.75-1.22.98-2.52 1.47-3.9 1.47-1.02 0-1.87-.47-2.55-1.41-.68-.94-1.02-2.13-1.02-3.57 0-1.46.34-2.97 1.02-4.53z" fill="#D3FFBC"/><defs><linearGradient id="paint0_linear_13_2" x1="327.757" y1="207" x2="1380.44" y2="213.567" gradientUnits="userSpaceOnUse"><stop stop-color="#A5FF75"/><stop offset=".349" stop-color="#6FB649"/></linearGradient><linearGradient id="paint1_linear_13_2" x1="472.617" y1="136.693" x2="8.75" y2="136.693" gradientUnits="userSpaceOnUse"><stop offset=".495" stop-color="#B4FF8C"/><stop offset="1" stop-color="#6FB649"/></linearGradient><linearGradient id="paint2_linear_13_2" x1="423.702" y1="144.894" x2="270.032" y2="150.463" gradientUnits="userSpaceOnUse"><stop stop-color="#6FB649"/><stop offset="1" stop-color="#B4FF8C" stop-opacity="0"/><stop offset="1" stop-color="#A5FF75"/></linearGradient><linearGradient id="paint3_linear_13_2" x1="31.464" y1="102.057" x2="217.382" y2="34.356" gradientUnits="userSpaceOnUse"><stop stop-color="#B4FF8C"/><stop offset="1" stop-color="#6FB649"/></linearGradient><filter id="filter0_d_13_2" x="0" y="0" width="784" height="422" filterUnits="userSpaceOnUse" color-interpolation-filters="sRGB"><feFlood flood-opacity="0" result="BackgroundImageFix"/><feColorMatrix in="SourceAlpha" values="0 0 0 0 0 0 0 0 0 0 0 0 0 0 0 0 0 0 127 0" result="hardAlpha"/><feOffset dy="4"/><feGaussianBlur stdDeviation="2"/><feComposite in2="hardAlpha" operator="out"/><feColorMatrix values="0 0 0 0 0 0 0 0 0 0 0 0 0 0 0 0 0 0 0.25 0"/><feBlend in2="BackgroundImageFix" result="effect1_dropShadow_13_2"/><feBlend in="SourceGraphic" in2="effect1_dropShadow_13_2" result="shape"/></filter><filter id="filter1_d_13_2" x="431" y="172" width="220.923" height="131" filterUnits="userSpaceOnUse" color-interpolation-filters="sRGB"><feFlood flood-opacity="0" result="BackgroundImageFix"/><feColorMatrix in="SourceAlpha" values="0 0 0 0 0 0 0 0 0 0 0 0 0 0 0 0 0 0 127 0" result="hardAlpha"/><feOffset dx="3" dy="6"/><feGaussianBlur stdDeviation="2"/><feComposite in2="hardAlpha" operator="out"/><feColorMatrix values="0 0 0 0 0 0 0 0 0 0 0 0 0 0 0 0 0 0 0.25 0"/><feBlend in2="BackgroundImageFix" result="effect1_dropShadow_13_2"/><feBlend in="SourceGraphic" in2="effect1_dropShadow_13_2" result="shape"/></filter></defs></svg>