<svg  width="355" height="464" viewBox="0 0 655 464" fill="none" xmlns="http://www.w3.org/2000/svg">
<path d="M124 44C124 19.6995 143.699 0 168 0H467V420C467 444.301 447.301 464 423 464H168C143.699 464 124 444.301 124 420V44Z" fill="#A5FF75"/>
<rect x="124" y="57" width="343" height="95" fill="#9AF06C"/>
<path d="M124 300H467V420C467 444.301 447.301 464 423 464H124V300Z" fill="#4E8133"/>
<path d="M124 152.5H467V300.5H124V152.5Z" fill="#85D858"/>
<path d="M183 71H552.553C560.392 71 567.777 74.6772 572.502 80.9327L643.397 174.799C649.999 183.541 650.141 195.563 643.746 204.459L572.482 303.593C567.785 310.127 560.229 314 552.182 314H208C194.193 314 183 302.807 183 289V179V71Z" fill="#B4FF8C"/>
<path d="M231.14 149.86C230.66 149.86 230.02 149.38 229.22 148.42C228.46 147.46 228.08 146.58 228.08 145.78C228.08 144.98 229.26 139.4 231.62 129.04C234.02 118.64 235.24 112.2 235.28 109.72C235.28 109.04 235.36 108.58 235.52 108.34C235.72 108.06 236.1 107.92 236.66 107.92C237.26 107.92 238.02 108.54 238.94 109.78C239.9 111.02 240.38 112.36 240.38 113.8C240.38 115.2 238.94 121.76 236.06 133.48C235.78 134.56 235.4 136.12 234.92 138.16C234.44 140.16 234.06 141.7 233.78 142.78C233.5 143.86 233.2 145.04 232.88 146.32C232.2 148.68 231.62 149.86 231.14 149.86ZM251.154 144.1C251.154 144.86 251.594 145.24 252.474 145.24C253.994 145.24 255.834 144.82 257.994 143.98C260.194 143.1 261.414 142.66 261.654 142.66C262.374 142.66 262.734 143.04 262.734 143.8C262.734 144.96 261.534 146.3 259.134 147.82C256.774 149.34 254.614 150.1 252.654 150.1C250.734 150.1 249.134 149.58 247.854 148.54C246.574 147.46 245.934 146.36 245.934 145.24C245.934 144.12 246.174 142.7 246.654 140.98C247.134 139.22 247.814 136.92 248.694 134.08C249.614 131.2 250.334 128.82 250.854 126.94C248.974 127.38 247.714 127.6 247.074 127.6C246.434 127.6 245.794 127.28 245.154 126.64C244.554 125.96 244.254 125.32 244.254 124.72C244.254 123.76 246.854 122.84 252.054 121.96C252.774 118.64 253.134 115.7 253.134 113.14C253.134 111.94 253.534 111.34 254.334 111.34C255.014 111.34 255.854 111.78 256.854 112.66C257.854 113.5 258.354 114.46 258.354 115.54C258.354 116.62 258.014 118.52 257.334 121.24C259.614 121.04 261.434 120.94 262.794 120.94C265.194 120.94 266.394 121.46 266.394 122.5C266.394 123.1 265.734 123.6 264.414 124C263.134 124.4 260.414 125.02 256.254 125.86C255.414 129.02 254.354 132.64 253.074 136.72C251.794 140.76 251.154 143.22 251.154 144.1ZM279.637 106.36C279.637 108.88 278.477 111.42 276.157 113.98C273.837 116.54 271.937 117.82 270.457 117.82C269.377 117.82 268.837 117.38 268.837 116.5C268.837 116.02 269.277 115.34 270.157 114.46C271.077 113.58 271.997 112.56 272.917 111.4C273.837 110.24 274.297 109.16 274.297 108.16C274.297 107.16 274.117 106.42 273.757 105.94C273.397 105.46 273.017 105.12 272.617 104.92C271.457 104.44 270.877 103.82 270.877 103.06C270.877 102.3 271.177 101.66 271.777 101.14C272.417 100.58 273.157 100.3 273.997 100.3C275.557 100.3 276.877 100.86 277.957 101.98C279.077 103.06 279.637 104.52 279.637 106.36ZM301.965 120.34C303.325 120.34 304.605 121.1 305.805 122.62C307.005 124.1 307.605 125.4 307.605 126.52C307.605 127.2 307.285 127.54 306.645 127.54C306.205 127.54 305.525 127.2 304.605 126.52C303.685 125.8 302.745 125.44 301.785 125.44C300.825 125.44 299.305 126 297.225 127.12C295.185 128.24 294.165 129.42 294.165 130.66C294.165 131.58 296.005 133.16 299.685 135.4C301.085 136.28 302.345 137.42 303.465 138.82C304.625 140.18 305.205 141.66 305.205 143.26C305.205 144.82 304.105 146.36 301.905 147.88C299.745 149.36 297.205 150.1 294.285 150.1C291.405 150.1 288.845 149.4 286.605 148C284.405 146.6 283.305 145.28 283.305 144.04C283.305 143.52 283.425 143.12 283.665 142.84C283.945 142.52 284.285 142.36 284.685 142.36C285.085 142.36 285.645 142.62 286.365 143.14C288.525 144.7 290.765 145.48 293.085 145.48C295.445 145.48 297.145 145.22 298.185 144.7C299.225 144.14 299.745 143.42 299.745 142.54C299.745 141.62 299.165 140.66 298.005 139.66C296.845 138.62 295.565 137.7 294.165 136.9C292.805 136.1 291.545 135.12 290.385 133.96C289.225 132.8 288.645 131.62 288.645 130.42C288.645 128.3 290.305 126.1 293.625 123.82C296.985 121.5 299.765 120.34 301.965 120.34ZM373.254 120.34C374.454 120.34 375.514 121.18 376.434 122.86C377.394 124.5 377.874 126.38 377.874 128.5C377.874 130.58 377.494 133.3 376.734 136.66C376.014 140.02 375.034 143.1 373.794 145.9C372.554 148.7 371.334 150.1 370.134 150.1C369.294 150.1 368.874 149.56 368.874 148.48C368.874 147.36 369.554 144.66 370.914 140.38C372.314 136.06 373.014 132.64 373.014 130.12C373.014 127.56 372.614 126.28 371.814 126.28C370.814 126.28 369.654 127.16 368.334 128.92C367.054 130.68 365.674 132.8 364.194 135.28C362.714 137.76 361.914 139.1 361.794 139.3C361.674 139.46 361.514 139.7 361.314 140.02C361.154 140.34 360.954 140.68 360.714 141.04C360.514 141.4 359.954 142.48 359.034 144.28C358.154 146.08 357.374 147.5 356.694 148.54C356.014 149.54 355.414 150.04 354.894 150.04C354.414 150.04 353.874 149.72 353.274 149.08C352.674 148.44 352.374 147.84 352.374 147.28C352.374 146.72 352.734 145.56 353.454 143.8C355.534 138.6 356.574 133.76 356.574 129.28C356.574 128.44 356.394 127.74 356.034 127.18C355.674 126.58 355.274 126.28 354.834 126.28C354.394 126.28 353.934 126.48 353.454 126.88C352.974 127.24 352.374 127.92 351.654 128.92C350.934 129.88 350.294 130.8 349.734 131.68C349.174 132.56 348.314 133.94 347.154 135.82C346.034 137.66 345.174 139.04 344.574 139.96C344.014 140.84 343.354 141.88 342.594 143.08C341.834 144.24 341.234 145.14 340.794 145.78C340.394 146.42 339.934 147.12 339.414 147.88C338.334 149.36 337.534 150.1 337.014 150.1C336.534 150.1 335.894 149.66 335.094 148.78C334.294 147.86 333.894 147.18 333.894 146.74C333.894 146.26 333.974 145.68 334.134 145C334.294 144.32 334.454 143.66 334.614 143.02C334.814 142.38 335.094 141.44 335.454 140.2C335.854 138.92 336.294 137.44 336.774 135.76C337.294 134.04 337.674 131.7 337.914 128.74C338.194 125.74 338.394 123.56 338.514 122.2C338.634 120.8 338.974 120.1 339.534 120.1C340.414 120.1 341.274 120.56 342.114 121.48C342.994 122.4 343.434 123.32 343.434 124.24C343.434 127.76 342.114 133.56 339.474 141.64C343.954 133.24 346.774 128.26 347.934 126.7C349.094 125.14 350.094 123.88 350.934 122.92C352.494 121.2 354.074 120.34 355.674 120.34C356.634 120.34 357.774 121.18 359.094 122.86C360.454 124.5 361.134 126.16 361.134 127.84C361.134 129.52 360.894 131.6 360.414 134.08C365.134 124.92 369.414 120.34 373.254 120.34ZM405.648 120.34C406.288 120.34 406.968 120.82 407.688 121.78C408.448 122.7 408.828 123.74 408.828 124.9C408.828 125.7 408.008 128.42 406.368 133.06C404.728 137.7 403.608 140.86 403.008 142.54C402.448 144.18 401.668 146.38 400.668 149.14C399.708 151.86 398.768 154.52 397.848 157.12C395.848 162.84 392.848 165.7 388.848 165.7C386.568 165.7 384.388 165 382.308 163.6C380.228 162.24 379.188 160.82 379.188 159.34C379.188 158.78 379.448 158.16 379.968 157.48C380.448 156.8 380.868 156.46 381.228 156.46C381.588 156.46 382.168 156.9 382.968 157.78C385.288 160.42 387.268 161.74 388.908 161.74C390.148 161.74 391.268 160.64 392.268 158.44C393.268 156.28 394.208 153.82 395.088 151.06C396.008 148.34 396.508 146.84 396.588 146.56C396.708 146.28 396.828 145.92 396.948 145.48C397.108 145.04 397.248 144.64 397.368 144.28C394.528 148.16 391.728 150.1 388.968 150.1C387.288 150.1 385.728 149.32 384.288 147.76C382.888 146.2 382.188 144.36 382.188 142.24C382.188 140.12 382.708 137.26 383.748 133.66C384.788 130.06 386.008 126.94 387.408 124.3C388.808 121.66 389.948 120.34 390.828 120.34C391.548 120.34 392.208 120.68 392.808 121.36C393.448 122 393.768 122.66 393.768 123.34C393.768 124.02 393.248 125.44 392.208 127.6C388.968 134.24 387.348 139.4 387.348 143.08C387.348 143.72 387.548 144.26 387.948 144.7C388.348 145.1 388.828 145.3 389.388 145.3C390.828 145.3 392.548 144.02 394.548 141.46C396.548 138.9 398.388 135.86 400.068 132.34C401.468 129.38 402.928 125.6 404.448 121C404.608 120.56 405.008 120.34 405.648 120.34ZM440.995 148.36C440.395 149.6 439.875 150.22 439.435 150.22C438.995 150.22 438.455 149.86 437.815 149.14C437.175 148.38 436.855 147.74 436.855 147.22C436.855 146.7 437.075 145.68 437.515 144.16C439.435 137.72 440.835 132.48 441.715 128.44C439.715 128.8 438.435 128.98 437.875 128.98C437.315 128.98 436.715 128.68 436.075 128.08C435.435 127.48 435.115 126.86 435.115 126.22C435.115 125.54 435.815 125 437.215 124.6C438.655 124.2 440.535 123.8 442.855 123.4C443.015 122.6 443.255 121.32 443.575 119.56C444.535 113.92 445.815 109.92 447.415 107.56C449.015 105.16 451.235 103.96 454.075 103.96C456.195 103.96 458.415 104.94 460.735 106.9C463.055 108.82 464.215 110.78 464.215 112.78C464.215 114.74 463.715 115.72 462.715 115.72C461.995 115.72 461.135 115.14 460.135 113.98C459.175 112.78 458.155 111.6 457.075 110.44C456.035 109.24 455.075 108.64 454.195 108.64C452.155 108.64 450.215 112.8 448.375 121.12L448.015 122.68C453.015 122.04 456.795 121.72 459.355 121.72C461.955 121.72 463.255 122.7 463.255 124.66C463.255 125.74 462.355 129.14 460.555 134.86C458.755 140.54 457.535 144.5 456.895 146.74C456.255 148.94 455.415 150.04 454.375 150.04C453.775 150.04 453.275 149.78 452.875 149.26C452.515 148.7 452.335 148.08 452.335 147.4C452.335 146.68 452.675 145.02 453.355 142.42C454.035 139.78 454.835 136.78 455.755 133.42C456.675 130.02 457.315 127.54 457.675 125.98C455.915 126.06 452.295 126.58 446.815 127.54C444.055 139.06 442.115 146 440.995 148.36ZM469.694 127.66L469.514 123.16C469.514 121.28 469.954 120.34 470.834 120.34C471.594 120.34 472.314 120.84 472.994 121.84C473.714 122.8 474.074 123.96 474.074 125.32C474.074 126.64 474.034 127.64 473.954 128.32C477.434 123.04 480.734 120.4 483.854 120.4C485.814 120.4 486.794 120.88 486.794 121.84C486.794 122.32 486.574 122.76 486.134 123.16C485.694 123.56 484.994 124.02 484.034 124.54C481.914 125.46 480.114 126.88 478.634 128.8C477.194 130.68 476.014 132.82 475.094 135.22C474.174 137.62 473.434 139.64 472.874 141.28C472.354 142.92 471.954 144.2 471.674 145.12C471.394 146.04 471.074 146.94 470.714 147.82C470.074 149.42 469.334 150.22 468.494 150.22C467.814 150.22 467.254 149.84 466.814 149.08C466.414 148.28 466.214 147.52 466.214 146.8C466.214 146.04 466.554 144.56 467.234 142.36C468.874 137.32 469.694 132.42 469.694 127.66ZM503.118 120.34C504.478 120.34 505.758 121.1 506.958 122.62C508.158 124.1 508.758 125.4 508.758 126.52C508.758 127.2 508.438 127.54 507.798 127.54C507.358 127.54 506.678 127.2 505.758 126.52C504.838 125.8 503.898 125.44 502.938 125.44C501.978 125.44 500.458 126 498.378 127.12C496.338 128.24 495.318 129.42 495.318 130.66C495.318 131.58 497.158 133.16 500.838 135.4C502.238 136.28 503.498 137.42 504.618 138.82C505.778 140.18 506.358 141.66 506.358 143.26C506.358 144.82 505.258 146.36 503.058 147.88C500.898 149.36 498.358 150.1 495.438 150.1C492.558 150.1 489.998 149.4 487.758 148C485.558 146.6 484.458 145.28 484.458 144.04C484.458 143.52 484.578 143.12 484.818 142.84C485.098 142.52 485.438 142.36 485.838 142.36C486.238 142.36 486.798 142.62 487.518 143.14C489.678 144.7 491.918 145.48 494.238 145.48C496.598 145.48 498.298 145.22 499.338 144.7C500.378 144.14 500.898 143.42 500.898 142.54C500.898 141.62 500.318 140.66 499.158 139.66C497.998 138.62 496.718 137.7 495.318 136.9C493.958 136.1 492.698 135.12 491.538 133.96C490.378 132.8 489.798 131.62 489.798 130.42C489.798 128.3 491.458 126.1 494.778 123.82C498.138 121.5 500.918 120.34 503.118 120.34ZM518.225 144.1C518.225 144.86 518.665 145.24 519.545 145.24C521.065 145.24 522.905 144.82 525.065 143.98C527.265 143.1 528.485 142.66 528.725 142.66C529.445 142.66 529.805 143.04 529.805 143.8C529.805 144.96 528.605 146.3 526.205 147.82C523.845 149.34 521.685 150.1 519.725 150.1C517.805 150.1 516.205 149.58 514.925 148.54C513.645 147.46 513.005 146.36 513.005 145.24C513.005 144.12 513.245 142.7 513.725 140.98C514.205 139.22 514.885 136.92 515.765 134.08C516.685 131.2 517.405 128.82 517.925 126.94C516.045 127.38 514.785 127.6 514.145 127.6C513.505 127.6 512.865 127.28 512.225 126.64C511.625 125.96 511.325 125.32 511.325 124.72C511.325 123.76 513.925 122.84 519.125 121.96C519.845 118.64 520.205 115.7 520.205 113.14C520.205 111.94 520.605 111.34 521.405 111.34C522.085 111.34 522.925 111.78 523.925 112.66C524.925 113.5 525.425 114.46 525.425 115.54C525.425 116.62 525.085 118.52 524.405 121.24C526.685 121.04 528.505 120.94 529.865 120.94C532.265 120.94 533.465 121.46 533.465 122.5C533.465 123.1 532.805 123.6 531.485 124C530.205 124.4 527.485 125.02 523.325 125.86C522.485 129.02 521.425 132.64 520.145 136.72C518.865 140.76 518.225 143.22 518.225 144.1ZM389.972 195.16C391.692 195.16 393.172 196.26 394.412 198.46C395.692 200.66 396.332 202.94 396.332 205.3C396.332 207.62 395.652 209.96 394.292 212.32C392.932 214.64 391.252 216.72 389.252 218.56C387.252 220.4 385.032 221.94 382.592 223.18C380.192 224.38 377.972 224.98 375.932 224.98C375.132 224.98 374.372 224.88 373.652 224.68C373.492 225.36 373.212 226.58 372.812 228.34C372.412 230.1 372.072 231.56 371.792 232.72C371.512 233.88 371.192 235.12 370.832 236.44C370.112 239.16 369.472 240.52 368.912 240.52C368.352 240.52 367.772 240.08 367.172 239.2C366.532 238.36 366.212 237.6 366.212 236.92C366.212 236.24 366.852 233.32 368.132 228.16C371.972 212.6 373.892 202.12 373.892 196.72C373.892 195.52 374.332 194.92 375.212 194.92C375.932 194.92 376.792 195.46 377.792 196.54C378.832 197.58 379.352 198.74 379.352 200.02C379.352 200.66 379.272 201.36 379.112 202.12C382.672 197.48 386.292 195.16 389.972 195.16ZM375.332 220.3C377.452 220.3 379.732 219.58 382.172 218.14C384.652 216.7 386.752 214.8 388.472 212.44C390.232 210.04 391.112 207.66 391.112 205.3C391.112 201.98 390.332 200.32 388.772 200.32C387.212 200.32 385.092 201.66 382.412 204.34C379.772 207.02 377.672 210.5 376.112 214.78L374.732 220.3H375.332ZM402.605 202.66L402.425 198.16C402.425 196.28 402.865 195.34 403.745 195.34C404.505 195.34 405.225 195.84 405.905 196.84C406.625 197.8 406.985 198.96 406.985 200.32C406.985 201.64 406.945 202.64 406.865 203.32C410.345 198.04 413.645 195.4 416.765 195.4C418.725 195.4 419.705 195.88 419.705 196.84C419.705 197.32 419.485 197.76 419.045 198.16C418.605 198.56 417.905 199.02 416.945 199.54C414.825 200.46 413.025 201.88 411.545 203.8C410.105 205.68 408.925 207.82 408.005 210.22C407.085 212.62 406.345 214.64 405.785 216.28C405.265 217.92 404.865 219.2 404.585 220.12C404.305 221.04 403.985 221.94 403.625 222.82C402.985 224.42 402.245 225.22 401.405 225.22C400.725 225.22 400.165 224.84 399.725 224.08C399.325 223.28 399.125 222.52 399.125 221.8C399.125 221.04 399.465 219.56 400.145 217.36C401.785 212.32 402.605 207.42 402.605 202.66ZM436.988 205.54C436.988 204.18 436.768 202.9 436.328 201.7C435.888 200.46 435.248 199.56 434.408 199C431.648 199.76 429.268 201.9 427.268 205.42C425.308 208.9 424.328 212.18 424.328 215.26C424.328 218.34 425.088 220.26 426.608 221.02C429.488 220.46 431.928 218.5 433.928 215.14C435.968 211.74 436.988 208.54 436.988 205.54ZM421.208 206.08C422.608 202.96 424.428 200.4 426.668 198.4C428.948 196.36 431.268 195.34 433.628 195.34C436.028 195.34 438.028 196.36 439.628 198.4C441.228 200.4 442.028 202.86 442.028 205.78C442.028 208.66 441.328 211.62 439.928 214.66C438.528 217.66 436.588 220.16 434.108 222.16C431.668 224.12 429.068 225.1 426.308 225.1C424.268 225.1 422.568 224.16 421.208 222.28C419.848 220.4 419.168 218.02 419.168 215.14C419.168 212.22 419.848 209.2 421.208 206.08ZM435.255 233.26C436.975 235.46 438.395 236.56 439.515 236.56C440.635 236.56 441.575 235.96 442.335 234.76C443.095 233.56 443.835 231.66 444.555 229.06C445.275 226.5 445.955 223.86 446.595 221.14C447.235 218.42 448.055 214.82 449.055 210.34C450.095 205.86 451.095 201.84 452.055 198.28C452.655 196.32 453.235 195.34 453.795 195.34C454.475 195.34 455.175 195.78 455.895 196.66C456.615 197.5 456.975 198.42 456.975 199.42C456.975 200.34 456.355 203.14 455.115 207.82C453.875 212.46 452.775 216.64 451.815 220.36C450.855 224.08 449.915 227.72 448.995 231.28C447.275 237.56 444.155 240.7 439.635 240.7C437.635 240.7 435.695 239.86 433.815 238.18C431.895 236.5 430.935 235.06 430.935 233.86C430.935 233.34 431.155 232.72 431.595 232C431.995 231.32 432.375 230.98 432.735 230.98C433.175 230.98 433.635 231.26 434.115 231.82C434.595 232.42 434.975 232.9 435.255 233.26ZM454.515 186.82C454.515 186.02 454.835 185.26 455.475 184.54C456.115 183.82 456.775 183.46 457.455 183.46C458.135 183.46 458.915 184.28 459.795 185.92C460.715 187.52 461.175 188.86 461.175 189.94C461.175 190.34 460.995 190.7 460.635 191.02C460.275 191.34 459.915 191.5 459.555 191.5C458.595 191.5 457.515 190.92 456.315 189.76C455.115 188.6 454.515 187.62 454.515 186.82ZM485.23 205.3C485.23 207.42 484.07 209.16 481.75 210.52C479.47 211.84 476.87 212.5 473.95 212.5C471.07 212.5 468.45 212.18 466.09 211.54C465.53 213.3 465.25 214.88 465.25 216.28C465.25 217.64 465.67 218.7 466.51 219.46C467.39 220.22 468.81 220.6 470.77 220.6C472.77 220.6 474.81 220.26 476.89 219.58C479.01 218.86 480.17 218.5 480.37 218.5C481.41 218.5 481.93 218.9 481.93 219.7C481.93 220.78 480.71 221.96 478.27 223.24C475.83 224.48 473.45 225.1 471.13 225.1C468.01 225.1 465.47 224.18 463.51 222.34C461.55 220.46 460.57 218.1 460.57 215.26C460.57 212.42 461.33 209.46 462.85 206.38C464.37 203.26 466.33 200.64 468.73 198.52C471.13 196.4 473.51 195.34 475.87 195.34C478.23 195.34 480.37 196.46 482.29 198.7C484.25 200.94 485.23 203.14 485.23 205.3ZM476.17 200.08C474.69 200.08 473.15 200.86 471.55 202.42C469.95 203.94 468.59 205.84 467.47 208.12C469.07 208.48 470.89 208.66 472.93 208.66C474.97 208.66 476.75 208.34 478.27 207.7C479.79 207.02 480.55 206.14 480.55 205.06C480.55 203.98 480.05 202.88 479.05 201.76C478.09 200.64 477.13 200.08 476.17 200.08ZM497.961 225.1C495.641 225.1 493.461 224.2 491.421 222.4C489.381 220.56 488.361 218.4 488.361 215.92C488.361 213.4 489.201 210.5 490.881 207.22C492.561 203.94 494.721 201.14 497.361 198.82C500.041 196.5 502.641 195.34 505.161 195.34C506.801 195.34 508.241 196.08 509.481 197.56C510.721 199.04 511.341 200.34 511.341 201.46C511.341 201.78 511.241 202.06 511.041 202.3C510.841 202.5 510.541 202.6 510.141 202.6C509.781 202.6 509.121 202.24 508.161 201.52C507.201 200.8 506.341 200.44 505.581 200.44C503.421 200.44 500.901 202.34 498.021 206.14C495.141 209.94 493.701 213.26 493.701 216.1C493.701 217.34 494.081 218.32 494.841 219.04C495.641 219.76 496.901 220.12 498.621 220.12C500.381 220.12 501.981 219.92 503.421 219.52C504.901 219.08 506.041 218.66 506.841 218.26C507.641 217.82 508.261 217.6 508.701 217.6C509.461 217.6 509.841 217.98 509.841 218.74C509.841 219.9 508.441 221.26 505.641 222.82C502.881 224.34 500.321 225.1 497.961 225.1ZM521.74 219.1C521.74 219.86 522.18 220.24 523.06 220.24C524.58 220.24 526.42 219.82 528.58 218.98C530.78 218.1 532 217.66 532.24 217.66C532.96 217.66 533.32 218.04 533.32 218.8C533.32 219.96 532.12 221.3 529.72 222.82C527.36 224.34 525.2 225.1 523.24 225.1C521.32 225.1 519.72 224.58 518.44 223.54C517.16 222.46 516.52 221.36 516.52 220.24C516.52 219.12 516.76 217.7 517.24 215.98C517.72 214.22 518.4 211.92 519.28 209.08C520.2 206.2 520.92 203.82 521.44 201.94C519.56 202.38 518.3 202.6 517.66 202.6C517.02 202.6 516.38 202.28 515.74 201.64C515.14 200.96 514.84 200.32 514.84 199.72C514.84 198.76 517.44 197.84 522.64 196.96C523.36 193.64 523.72 190.7 523.72 188.14C523.72 186.94 524.12 186.34 524.92 186.34C525.6 186.34 526.44 186.78 527.44 187.66C528.44 188.5 528.94 189.46 528.94 190.54C528.94 191.62 528.6 193.52 527.92 196.24C530.2 196.04 532.02 195.94 533.38 195.94C535.78 195.94 536.98 196.46 536.98 197.5C536.98 198.1 536.32 198.6 535 199C533.72 199.4 531 200.02 526.84 200.86C526 204.02 524.94 207.64 523.66 211.72C522.38 215.76 521.74 218.22 521.74 219.1ZM541.463 218.68C542.143 217.84 542.823 217.42 543.503 217.42C544.183 217.42 545.003 218.4 545.963 220.36C546.923 222.28 547.403 223.72 547.403 224.68C547.403 224.96 547.203 225.28 546.803 225.64C546.403 226 546.023 226.18 545.663 226.18C544.663 226.18 543.543 225.56 542.303 224.32C541.063 223.04 540.443 222 540.443 221.2C540.443 220.36 540.783 219.52 541.463 218.68ZM549.203 177.4C549.963 177.4 551.003 177.88 552.323 178.84C553.643 179.8 554.303 180.56 554.303 181.12C554.303 184.52 553.423 190.5 551.663 199.06C549.943 207.62 548.563 211.9 547.523 211.9C546.883 211.9 546.283 211.58 545.723 210.94C545.163 210.26 544.883 209.56 544.883 208.84C544.843 208.6 545.083 207.16 545.603 204.52C546.163 201.88 546.743 198.18 547.343 193.42C547.943 188.62 548.243 183.8 548.243 178.96C548.243 177.92 548.563 177.4 549.203 177.4Z" fill="#6FB649"/>
<g filter="url(#filter0_d_13_3)">
<path d="M1 219C1 202.984 13.9837 190 30 190H320.732C328.574 190 336.082 193.176 341.544 198.804L426.928 286.787C438.418 298.627 437.729 317.654 425.413 328.632L341.248 403.649C335.935 408.384 329.068 411 321.952 411H30C13.9837 411 1 398.016 1 382V219Z" fill="#78D369"/>
</g>
<path d="M64.2 287.98C63.72 287.98 63.06 287.46 62.22 286.42C61.38 285.34 60.96 284.32 60.96 283.36C60.96 282.4 61.84 278.48 63.6 271.6C63.08 271.4 62.62 271.06 62.22 270.58C61.86 270.06 61.68 269.48 61.68 268.84C61.68 268.32 62.72 267.74 64.8 267.1C67.48 256.62 68.82 250.12 68.82 247.6C68.82 246.92 68.9 246.46 69.06 246.22C69.26 245.94 69.62 245.8 70.14 245.8C70.7 245.8 71.42 246.42 72.3 247.66C73.22 248.9 73.68 250.3 73.68 251.86C73.68 253.38 72.7 258 70.74 265.72C76.02 264.64 81.2 263.94 86.28 263.62C88.32 255.3 89.34 249.96 89.34 247.6C89.34 246.4 89.74 245.8 90.54 245.8C91.22 245.8 92.02 246.42 92.94 247.66C93.86 248.9 94.32 250.2 94.32 251.56C94.32 252.88 93.42 256.94 91.62 263.74C93.46 264.02 94.38 264.58 94.38 265.42C94.38 266.22 93.14 266.88 90.66 267.4C89.38 272.12 88.5 275.4 88.02 277.24C87.58 279.04 87.22 280.48 86.94 281.56C86.66 282.64 86.36 283.72 86.04 284.8C85.48 286.92 84.98 287.98 84.54 287.98C83.98 287.98 83.32 287.52 82.56 286.6C81.84 285.64 81.48 284.66 81.48 283.66C81.48 282.66 82.68 277.52 85.08 268.24C79.24 269.04 73.98 269.96 69.3 271C68.74 273.08 68.2 275.1 67.68 277.06C67.2 278.98 66.82 280.48 66.54 281.56C66.26 282.64 65.96 283.72 65.64 284.8C65.08 286.92 64.6 287.98 64.2 287.98ZM122.995 268.3C122.995 270.42 121.835 272.16 119.515 273.52C117.235 274.84 114.635 275.5 111.715 275.5C108.835 275.5 106.215 275.18 103.855 274.54C103.295 276.3 103.015 277.88 103.015 279.28C103.015 280.64 103.435 281.7 104.275 282.46C105.155 283.22 106.575 283.6 108.535 283.6C110.535 283.6 112.575 283.26 114.655 282.58C116.775 281.86 117.935 281.5 118.135 281.5C119.175 281.5 119.695 281.9 119.695 282.7C119.695 283.78 118.475 284.96 116.035 286.24C113.595 287.48 111.215 288.1 108.895 288.1C105.775 288.1 103.235 287.18 101.275 285.34C99.3153 283.46 98.3353 281.1 98.3353 278.26C98.3353 275.42 99.0953 272.46 100.615 269.38C102.135 266.26 104.095 263.64 106.495 261.52C108.895 259.4 111.275 258.34 113.635 258.34C115.995 258.34 118.135 259.46 120.055 261.7C122.015 263.94 122.995 266.14 122.995 268.3ZM113.935 263.08C112.455 263.08 110.915 263.86 109.315 265.42C107.715 266.94 106.355 268.84 105.235 271.12C106.835 271.48 108.655 271.66 110.695 271.66C112.735 271.66 114.515 271.34 116.035 270.7C117.555 270.02 118.315 269.14 118.315 268.06C118.315 266.98 117.815 265.88 116.815 264.76C115.855 263.64 114.895 263.08 113.935 263.08ZM137.887 246.58C137.887 254.1 136.327 263.86 133.207 275.86C131.207 284.02 129.807 288.1 129.007 288.1C128.447 288.1 127.787 287.66 127.027 286.78C126.307 285.9 125.947 285.22 125.947 284.74C125.947 284.26 126.527 281.78 127.687 277.3C128.847 272.82 130.007 267.32 131.167 260.8C132.327 254.24 132.907 248.34 132.907 243.1C132.907 242.54 132.987 242.14 133.147 241.9C133.307 241.66 133.647 241.54 134.167 241.54C134.687 241.54 135.427 242.12 136.387 243.28C137.387 244.4 137.887 245.5 137.887 246.58ZM152.594 246.58C152.594 254.1 151.034 263.86 147.914 275.86C145.914 284.02 144.514 288.1 143.714 288.1C143.154 288.1 142.494 287.66 141.734 286.78C141.014 285.9 140.654 285.22 140.654 284.74C140.654 284.26 141.234 281.78 142.394 277.3C143.554 272.82 144.714 267.32 145.874 260.8C147.034 254.24 147.614 248.34 147.614 243.1C147.614 242.54 147.694 242.14 147.854 241.9C148.014 241.66 148.354 241.54 148.874 241.54C149.394 241.54 150.134 242.12 151.094 243.28C152.094 244.4 152.594 245.5 152.594 246.58ZM173.601 268.54C173.601 267.18 173.381 265.9 172.941 264.7C172.501 263.46 171.861 262.56 171.021 262C168.261 262.76 165.881 264.9 163.881 268.42C161.921 271.9 160.941 275.18 160.941 278.26C160.941 281.34 161.701 283.26 163.221 284.02C166.101 283.46 168.541 281.5 170.541 278.14C172.581 274.74 173.601 271.54 173.601 268.54ZM157.821 269.08C159.221 265.96 161.041 263.4 163.281 261.4C165.561 259.36 167.881 258.34 170.241 258.34C172.641 258.34 174.641 259.36 176.241 261.4C177.841 263.4 178.641 265.86 178.641 268.78C178.641 271.66 177.941 274.62 176.541 277.66C175.141 280.66 173.201 283.16 170.721 285.16C168.281 287.12 165.681 288.1 162.921 288.1C160.881 288.1 159.181 287.16 157.821 285.28C156.461 283.4 155.781 281.02 155.781 278.14C155.781 275.22 156.461 272.2 157.821 269.08ZM200.789 268.54C200.789 267.18 200.569 265.9 200.129 264.7C199.689 263.46 199.049 262.56 198.209 262C195.449 262.76 193.069 264.9 191.069 268.42C189.109 271.9 188.129 275.18 188.129 278.26C188.129 281.34 188.889 283.26 190.409 284.02C193.289 283.46 195.729 281.5 197.729 278.14C199.769 274.74 200.789 271.54 200.789 268.54ZM185.009 269.08C186.409 265.96 188.229 263.4 190.469 261.4C192.749 259.36 195.069 258.34 197.429 258.34C199.829 258.34 201.829 259.36 203.429 261.4C205.029 263.4 205.829 265.86 205.829 268.78C205.829 271.66 205.129 274.62 203.729 277.66C202.329 280.66 200.389 283.16 197.909 285.16C195.469 287.12 192.869 288.1 190.109 288.1C188.069 288.1 186.369 287.16 185.009 285.28C183.649 283.4 182.969 281.02 182.969 278.14C182.969 275.22 183.649 272.2 185.009 269.08ZM227.976 268.54C227.976 267.18 227.756 265.9 227.316 264.7C226.876 263.46 226.236 262.56 225.396 262C222.636 262.76 220.256 264.9 218.256 268.42C216.296 271.9 215.316 275.18 215.316 278.26C215.316 281.34 216.076 283.26 217.596 284.02C220.476 283.46 222.916 281.5 224.916 278.14C226.956 274.74 227.976 271.54 227.976 268.54ZM212.196 269.08C213.596 265.96 215.416 263.4 217.656 261.4C219.936 259.36 222.256 258.34 224.616 258.34C227.016 258.34 229.016 259.36 230.616 261.4C232.216 263.4 233.016 265.86 233.016 268.78C233.016 271.66 232.316 274.62 230.916 277.66C229.516 280.66 227.576 283.16 225.096 285.16C222.656 287.12 220.056 288.1 217.296 288.1C215.256 288.1 213.556 287.16 212.196 285.28C210.836 283.4 210.156 281.02 210.156 278.14C210.156 275.22 210.836 272.2 212.196 269.08ZM255.164 268.54C255.164 267.18 254.944 265.9 254.504 264.7C254.064 263.46 253.424 262.56 252.584 262C249.824 262.76 247.444 264.9 245.444 268.42C243.484 271.9 242.504 275.18 242.504 278.26C242.504 281.34 243.264 283.26 244.784 284.02C247.664 283.46 250.104 281.5 252.104 278.14C254.144 274.74 255.164 271.54 255.164 268.54ZM239.384 269.08C240.784 265.96 242.604 263.4 244.844 261.4C247.124 259.36 249.444 258.34 251.804 258.34C254.204 258.34 256.204 259.36 257.804 261.4C259.404 263.4 260.204 265.86 260.204 268.78C260.204 271.66 259.504 274.62 258.104 277.66C256.704 280.66 254.764 283.16 252.284 285.16C249.844 287.12 247.244 288.1 244.484 288.1C242.444 288.1 240.744 287.16 239.384 285.28C238.024 283.4 237.344 281.02 237.344 278.14C237.344 275.22 238.024 272.2 239.384 269.08ZM267.471 281.68C268.151 280.84 268.831 280.42 269.511 280.42C270.191 280.42 271.011 281.4 271.971 283.36C272.931 285.28 273.411 286.72 273.411 287.68C273.411 287.96 273.211 288.28 272.811 288.64C272.411 289 272.031 289.18 271.671 289.18C270.671 289.18 269.551 288.56 268.311 287.32C267.071 286.04 266.451 285 266.451 284.2C266.451 283.36 266.791 282.52 267.471 281.68ZM275.211 240.4C275.971 240.4 277.011 240.88 278.331 241.84C279.651 242.8 280.311 243.56 280.311 244.12C280.311 247.52 279.431 253.5 277.671 262.06C275.951 270.62 274.571 274.9 273.531 274.9C272.891 274.9 272.291 274.58 271.731 273.94C271.171 273.26 270.891 272.56 270.891 271.84C270.851 271.6 271.091 270.16 271.611 267.52C272.171 264.88 272.751 261.18 273.351 256.42C273.951 251.62 274.251 246.8 274.251 241.96C274.251 240.92 274.571 240.4 275.211 240.4ZM86.88 320.86C91.56 320.86 95.1 322.72 97.5 326.44C99.9 330.16 101.1 334.84 101.1 340.48C101.1 346.12 99.7 351.26 96.9 355.9C94.14 360.5 90.94 362.8 87.3 362.8C84.74 362.8 82.86 361.36 81.66 358.48C80.46 355.6 79.68 351.5 79.32 346.18C77.64 348.54 75.72 351.22 73.56 354.22C69.4 359.98 66.48 362.86 64.8 362.86C64.16 362.86 63.42 362.34 62.58 361.3C61.74 360.26 61.32 358.96 61.32 357.4C61.32 355.8 61.86 350.86 62.94 342.58C64.02 334.26 64.56 327.78 64.56 323.14C64.56 321.66 65 320.92 65.88 320.92C66.76 320.92 67.78 321.44 68.94 322.48C70.14 323.52 70.74 324.48 70.74 325.36C70.74 326.2 70.06 330.42 68.7 338.02C67.38 345.62 66.56 351.58 66.24 355.9C68.68 351.78 71.42 347.98 74.46 344.5C77.54 340.98 79.74 339.22 81.06 339.22C82.42 339.22 83.36 342.22 83.88 348.22C84.08 350.46 84.46 352.52 85.02 354.4C85.62 356.28 86.42 357.22 87.42 357.22C89.66 357.22 91.6 355.42 93.24 351.82C94.92 348.18 95.76 344.16 95.76 339.76C95.76 334.88 94.68 331.12 92.52 328.48C91.4 327.08 90.16 326.38 88.8 326.38C87.48 326.38 86.34 325.92 85.38 325C84.46 324.08 84 323.28 84 322.6C84 321.44 84.96 320.86 86.88 320.86ZM129.734 343.3C129.734 345.42 128.574 347.16 126.254 348.52C123.974 349.84 121.374 350.5 118.454 350.5C115.574 350.5 112.954 350.18 110.594 349.54C110.034 351.3 109.754 352.88 109.754 354.28C109.754 355.64 110.174 356.7 111.014 357.46C111.894 358.22 113.314 358.6 115.274 358.6C117.274 358.6 119.314 358.26 121.394 357.58C123.514 356.86 124.674 356.5 124.874 356.5C125.914 356.5 126.434 356.9 126.434 357.7C126.434 358.78 125.214 359.96 122.774 361.24C120.334 362.48 117.954 363.1 115.634 363.1C112.514 363.1 109.974 362.18 108.014 360.34C106.054 358.46 105.074 356.1 105.074 353.26C105.074 350.42 105.834 347.46 107.354 344.38C108.874 341.26 110.834 338.64 113.234 336.52C115.634 334.4 118.014 333.34 120.374 333.34C122.734 333.34 124.874 334.46 126.794 336.7C128.754 338.94 129.734 341.14 129.734 343.3ZM120.674 338.08C119.194 338.08 117.654 338.86 116.054 340.42C114.454 341.94 113.094 343.84 111.974 346.12C113.574 346.48 115.394 346.66 117.434 346.66C119.474 346.66 121.254 346.34 122.774 345.7C124.294 345.02 125.054 344.14 125.054 343.06C125.054 341.98 124.554 340.88 123.554 339.76C122.594 338.64 121.634 338.08 120.674 338.08ZM144.625 321.58C144.625 329.1 143.065 338.86 139.945 350.86C137.945 359.02 136.545 363.1 135.745 363.1C135.185 363.1 134.525 362.66 133.765 361.78C133.045 360.9 132.685 360.22 132.685 359.74C132.685 359.26 133.265 356.78 134.425 352.3C135.585 347.82 136.745 342.32 137.905 335.8C139.065 329.24 139.645 323.34 139.645 318.1C139.645 317.54 139.725 317.14 139.885 316.9C140.045 316.66 140.385 316.54 140.905 316.54C141.425 316.54 142.165 317.12 143.125 318.28C144.125 319.4 144.625 320.5 144.625 321.58ZM157.172 363.1C154.852 363.1 152.672 362.2 150.632 360.4C148.592 358.56 147.572 356.4 147.572 353.92C147.572 351.4 148.412 348.5 150.092 345.22C151.772 341.94 153.932 339.14 156.572 336.82C159.252 334.5 161.852 333.34 164.372 333.34C166.012 333.34 167.452 334.08 168.692 335.56C169.932 337.04 170.552 338.34 170.552 339.46C170.552 339.78 170.452 340.06 170.252 340.3C170.052 340.5 169.752 340.6 169.352 340.6C168.992 340.6 168.332 340.24 167.372 339.52C166.412 338.8 165.552 338.44 164.792 338.44C162.632 338.44 160.112 340.34 157.232 344.14C154.352 347.94 152.912 351.26 152.912 354.1C152.912 355.34 153.292 356.32 154.052 357.04C154.852 357.76 156.112 358.12 157.832 358.12C159.592 358.12 161.192 357.92 162.632 357.52C164.112 357.08 165.252 356.66 166.052 356.26C166.852 355.82 167.472 355.6 167.912 355.6C168.672 355.6 169.052 355.98 169.052 356.74C169.052 357.9 167.652 359.26 164.852 360.82C162.092 362.34 159.532 363.1 157.172 363.1ZM192.351 343.54C192.351 342.18 192.131 340.9 191.691 339.7C191.251 338.46 190.611 337.56 189.771 337C187.011 337.76 184.631 339.9 182.631 343.42C180.671 346.9 179.691 350.18 179.691 353.26C179.691 356.34 180.451 358.26 181.971 359.02C184.851 358.46 187.291 356.5 189.291 353.14C191.331 349.74 192.351 346.54 192.351 343.54ZM176.571 344.08C177.971 340.96 179.791 338.4 182.031 336.4C184.311 334.36 186.631 333.34 188.991 333.34C191.391 333.34 193.391 334.36 194.991 336.4C196.591 338.4 197.391 340.86 197.391 343.78C197.391 346.66 196.691 349.62 195.291 352.66C193.891 355.66 191.951 358.16 189.471 360.16C187.031 362.12 184.431 363.1 181.671 363.1C179.631 363.1 177.931 362.16 176.571 360.28C175.211 358.4 174.531 356.02 174.531 353.14C174.531 350.22 175.211 347.2 176.571 344.08ZM240.239 333.34C241.439 333.34 242.499 334.18 243.419 335.86C244.379 337.5 244.859 339.38 244.859 341.5C244.859 343.58 244.479 346.3 243.719 349.66C242.999 353.02 242.019 356.1 240.779 358.9C239.539 361.7 238.319 363.1 237.119 363.1C236.279 363.1 235.859 362.56 235.859 361.48C235.859 360.36 236.539 357.66 237.899 353.38C239.299 349.06 239.999 345.64 239.999 343.12C239.999 340.56 239.599 339.28 238.799 339.28C237.799 339.28 236.639 340.16 235.319 341.92C234.039 343.68 232.659 345.8 231.179 348.28C229.699 350.76 228.899 352.1 228.779 352.3C228.659 352.46 228.499 352.7 228.299 353.02C228.139 353.34 227.939 353.68 227.699 354.04C227.499 354.4 226.939 355.48 226.019 357.28C225.139 359.08 224.359 360.5 223.679 361.54C222.999 362.54 222.399 363.04 221.879 363.04C221.399 363.04 220.859 362.72 220.259 362.08C219.659 361.44 219.359 360.84 219.359 360.28C219.359 359.72 219.719 358.56 220.439 356.8C222.519 351.6 223.559 346.76 223.559 342.28C223.559 341.44 223.379 340.74 223.019 340.18C222.659 339.58 222.259 339.28 221.819 339.28C221.379 339.28 220.919 339.48 220.439 339.88C219.959 340.24 219.359 340.92 218.639 341.92C217.919 342.88 217.279 343.8 216.719 344.68C216.159 345.56 215.299 346.94 214.139 348.82C213.019 350.66 212.159 352.04 211.559 352.96C210.999 353.84 210.339 354.88 209.579 356.08C208.819 357.24 208.219 358.14 207.779 358.78C207.379 359.42 206.919 360.12 206.399 360.88C205.319 362.36 204.519 363.1 203.999 363.1C203.519 363.1 202.879 362.66 202.079 361.78C201.279 360.86 200.879 360.18 200.879 359.74C200.879 359.26 200.959 358.68 201.119 358C201.279 357.32 201.439 356.66 201.599 356.02C201.799 355.38 202.079 354.44 202.439 353.2C202.839 351.92 203.279 350.44 203.759 348.76C204.279 347.04 204.659 344.7 204.899 341.74C205.179 338.74 205.379 336.56 205.499 335.2C205.619 333.8 205.959 333.1 206.519 333.1C207.399 333.1 208.259 333.56 209.099 334.48C209.979 335.4 210.419 336.32 210.419 337.24C210.419 340.76 209.099 346.56 206.459 354.64C210.939 346.24 213.759 341.26 214.919 339.7C216.079 338.14 217.079 336.88 217.919 335.92C219.479 334.2 221.059 333.34 222.659 333.34C223.619 333.34 224.759 334.18 226.079 335.86C227.439 337.5 228.119 339.16 228.119 340.84C228.119 342.52 227.879 344.6 227.399 347.08C232.119 337.92 236.399 333.34 240.239 333.34ZM273.113 343.3C273.113 345.42 271.953 347.16 269.633 348.52C267.353 349.84 264.753 350.5 261.833 350.5C258.953 350.5 256.333 350.18 253.973 349.54C253.413 351.3 253.133 352.88 253.133 354.28C253.133 355.64 253.553 356.7 254.393 357.46C255.273 358.22 256.693 358.6 258.653 358.6C260.653 358.6 262.693 358.26 264.773 357.58C266.893 356.86 268.053 356.5 268.253 356.5C269.293 356.5 269.813 356.9 269.813 357.7C269.813 358.78 268.593 359.96 266.153 361.24C263.713 362.48 261.333 363.1 259.013 363.1C255.893 363.1 253.353 362.18 251.393 360.34C249.433 358.46 248.453 356.1 248.453 353.26C248.453 350.42 249.213 347.46 250.733 344.38C252.253 341.26 254.213 338.64 256.613 336.52C259.013 334.4 261.393 333.34 263.753 333.34C266.113 333.34 268.253 334.46 270.173 336.7C272.133 338.94 273.113 341.14 273.113 343.3ZM264.053 338.08C262.573 338.08 261.033 338.86 259.433 340.42C257.833 341.94 256.473 343.84 255.353 346.12C256.953 346.48 258.773 346.66 260.813 346.66C262.853 346.66 264.633 346.34 266.153 345.7C267.673 345.02 268.433 344.14 268.433 343.06C268.433 341.98 267.933 340.88 266.933 339.76C265.973 338.64 265.013 338.08 264.053 338.08Z" fill="#D3FFBC"/>
<defs>
<filter id="filter0_d_13_3" x="0" y="190" width="442.117" height="231" filterUnits="userSpaceOnUse" color-interpolation-filters="sRGB">
<feFlood flood-opacity="0" result="BackgroundImageFix"/>
<feColorMatrix in="SourceAlpha" type="matrix" values="0 0 0 0 0 0 0 0 0 0 0 0 0 0 0 0 0 0 127 0" result="hardAlpha"/>
<feOffset dx="3" dy="6"/>
<feGaussianBlur stdDeviation="2"/>
<feComposite in2="hardAlpha" operator="out"/>
<feColorMatrix type="matrix" values="0 0 0 0 0 0 0 0 0 0 0 0 0 0 0 0 0 0 0.25 0"/>
<feBlend mode="normal" in2="BackgroundImageFix" result="effect1_dropShadow_13_3"/>
<feBlend mode="normal" in="SourceGraphic" in2="effect1_dropShadow_13_3" result="shape"/>
</filter>
</defs>
</svg>
